<svg width="58" height="51" viewBox="0 0 58 51" fill="none" xmlns="http://www.w3.org/2000/svg">
<g clip-path="url(#clip0_1047_359)">
<path fill-rule="evenodd" clip-rule="evenodd" d="M21.5139 2.40598C26.2873 0.517431 31.0654 -0.117769 35.5068 0.317066C48.8124 1.61731 59.0465 12.5308 56.8235 28.0953C55.5921 36.7153 52.5851 44.4016 43.7346 48.2C39.1364 50.1739 34.1785 50.8602 30.1799 50.208C20.8405 48.686 23.5201 42.8627 21.0158 36.8261C18.0641 29.7068 11.9578 27.8651 9.43503 37.0052C8.79857 39.3158 6.53407 40.0234 5.1643 40.1641C2.33713 40.454 0.0680195 37.0734 0.506161 31.1093C1.41473 18.8444 9.13525 7.30426 21.5139 2.40598ZM14.0747 16.3676C16.5929 16.3676 18.6314 18.2519 18.6314 20.5795C18.6314 22.9072 16.5929 24.7914 14.0747 24.7914C11.5566 24.7914 9.51805 22.9072 9.51805 20.5795C9.51805 18.2561 11.5566 16.3676 14.0747 16.3676ZM44.2097 26.4199C45.7086 26.4199 46.9261 27.5454 46.9261 28.9309C46.9261 30.3207 45.7086 31.4461 44.2097 31.4461C42.7107 31.4461 41.4932 30.3207 41.4932 28.9309C41.4932 27.5411 42.7107 26.4199 44.2097 26.4199ZM33.4959 29.9668C36.9411 29.9668 39.7314 32.546 39.7314 35.7305C39.7314 38.915 36.9411 41.4942 33.4959 41.4942C30.0508 41.4942 27.2605 38.9108 27.2605 35.7305C27.2651 32.546 30.0554 29.9668 33.4959 29.9668ZM26.9423 21.9096C28.4412 21.9096 29.6587 23.035 29.6587 24.4206C29.6587 25.8061 28.4412 26.9315 26.9423 26.9315C25.4387 26.9315 24.2212 25.8061 24.2212 24.4206C24.2258 23.035 25.4433 21.9096 26.9423 21.9096ZM40.5339 9.79391C43.979 9.79391 46.7693 12.3731 46.7693 15.5576C46.7693 18.7421 43.9744 21.3213 40.5339 21.3213C37.0887 21.3213 34.2984 18.7421 34.2984 15.5576C34.2984 12.3731 37.0887 9.79391 40.5339 9.79391ZM26.3842 8.97966C28.5011 8.97966 30.2214 10.5698 30.2214 12.5265C30.2214 14.4833 28.5057 16.0734 26.3842 16.0734C24.2673 16.0734 22.547 14.4833 22.547 12.5265C22.547 10.5655 24.2673 8.97966 26.3842 8.97966Z" fill="#404040"/>
</g>
<defs>
<clipPath id="clip0_1047_359">
<rect width="56.6725" height="50.2618" fill="white" transform="translate(0.455444 0.185059)"/>
</clipPath>
</defs>
</svg>
