<svg width="58" height="51" viewBox="0 0 58 51" fill="none" xmlns="http://www.w3.org/2000/svg">
<g clip-path="url(#clip0_1047_718)">
<path d="M30.854 27.4806H26.6663C26.5972 27.4806 26.5418 27.5106 26.4957 27.5556C26.4496 27.6056 26.4265 27.6706 26.4265 27.7406V37.309C26.4265 37.384 26.4542 37.444 26.4957 37.494C26.5418 37.5439 26.6018 37.5689 26.6663 37.5689H30.8494C30.9186 37.5689 30.974 37.5389 31.0201 37.494C31.0662 37.444 31.0893 37.379 31.0893 37.309V27.7406C31.0893 27.6656 31.0616 27.6056 31.0201 27.5556C30.9786 27.5006 30.9186 27.4806 30.854 27.4806ZM3.64314 7.16892H18.1664V2.65465C18.1664 1.96977 18.4247 1.35487 18.8351 0.90994C19.2502 0.465013 19.8221 0.185059 20.4447 0.185059H37.0757C37.7075 0.185059 38.2702 0.465013 38.6853 0.90994C39.0957 1.35487 39.354 1.97977 39.354 2.65465V7.16892H53.8772C54.7674 7.16892 55.5699 7.56385 56.1464 8.19875C56.7321 8.83364 57.0964 9.7035 57.0964 10.6583V19.087C53.4576 21.7915 49.7034 24.0961 45.8339 25.9758C41.9413 27.8655 37.9289 29.3303 33.7781 30.3401V26.9707C33.7781 26.2008 33.4875 25.4909 33.0217 24.981C32.5559 24.4761 31.901 24.1611 31.1861 24.1611H26.3297C25.6194 24.1611 24.9645 24.4761 24.4941 24.981C24.0283 25.4859 23.7377 26.1958 23.7377 26.9707V30.2651C19.6976 29.2603 15.782 27.8205 11.9863 25.9758C8.01072 24.0462 4.15969 21.6615 0.42395 18.862V10.6583C0.42395 9.6935 0.7883 8.82365 1.37403 8.19875C1.95514 7.56385 2.76224 7.16892 3.64314 7.16892ZM57.0964 24.0862V46.9624C57.0964 47.9272 56.7321 48.7971 56.1464 49.422C55.5606 50.0569 54.7581 50.4518 53.8772 50.4518H3.64314C2.75302 50.4518 1.95053 50.0569 1.37403 49.422C0.7883 48.7871 0.42395 47.9173 0.42395 46.9624V23.8762C3.60163 26.0858 6.87155 28.0155 10.2337 29.6502C14.5736 31.7599 19.075 33.3746 23.7423 34.4545V38.0789C23.7423 38.8487 24.0329 39.5586 24.4987 40.0685C24.9645 40.5735 25.624 40.8884 26.3343 40.8884H31.1907C31.901 40.8884 32.5559 40.5735 33.0263 40.0685C33.4921 39.5636 33.7827 38.8537 33.7827 38.0789V34.2795L33.8334 34.5094C38.5884 33.4246 43.1727 31.7949 47.5911 29.6452C50.8471 28.0655 54.0156 26.2058 57.0964 24.0862ZM35.3415 3.54951H22.1881C22.1097 3.54951 22.0451 3.5795 21.9851 3.64449C21.939 3.69448 21.8975 3.77947 21.8975 3.86446V7.07393H35.6183V3.86446C35.6183 3.77947 35.5906 3.70948 35.5306 3.64449C35.4845 3.5945 35.4061 3.54951 35.3277 3.54951H35.3415Z" fill="#404040"/>
</g>
<defs>
<clipPath id="clip0_1047_718">
<rect width="56.6725" height="50.2618" fill="white" transform="translate(0.42395 0.185059)"/>
</clipPath>
</defs>
</svg>
