<svg width="71" height="51" viewBox="0 0 71 51" fill="none" xmlns="http://www.w3.org/2000/svg">
<g clip-path="url(#clip0_1047_2882)">
<path d="M62.5059 13.1655C64.3574 12.9248 65.9698 12.7518 67.249 12.9546C67.8786 13.0544 68.4007 13.2425 68.8193 13.5396C69.2329 13.8331 69.5713 14.2516 69.8115 14.8569C70.2508 15.9649 70.3471 17.4425 70.1768 19.146C70.0073 20.8407 69.5793 22.7126 69.0166 24.5806C68.0316 27.8502 66.6451 31.066 65.5537 33.228L65.1055 34.0874C62.7644 38.4291 59.2682 43.0118 55.0312 46.1431C50.9319 49.1727 46.1785 50.8192 41.1016 49.6421L40.6094 49.519C39.2284 49.1495 37.9674 48.5843 36.8184 47.8403C40.0778 45.8503 42.6882 42.9858 44.7441 39.6753C47.2369 39.8972 49.8565 41.2194 52.3447 42.6772L53.0518 43.0913L53.0967 42.2729C53.2006 40.3835 52.3325 38.8355 51.1025 37.604C49.9952 36.4954 48.5682 35.6154 47.2051 34.9282C49.4623 29.6956 50.6646 23.8884 51.0439 18.6948V18.6938C51.1486 17.1871 51.2082 15.1851 51.1621 12.9507C53.8315 13.6062 56.6144 13.7991 59.5049 13.5337L60.1318 13.4692C60.9454 13.3776 61.7418 13.2685 62.5068 13.1665L62.5059 13.1655ZM39.5488 0.837402C40.2128 0.728027 40.7998 0.743406 41.3203 0.902832C41.7707 1.04082 42.1949 1.29411 42.5898 1.70947L42.7578 1.89795C43.5665 2.86421 44.1512 4.313 44.5449 6.07178C44.9367 7.822 45.1302 9.83367 45.1865 11.8853C45.2992 15.9895 44.8643 20.1966 44.4287 22.6724C43.5278 27.782 41.5548 33.517 38.3594 38.0483C35.1677 42.5743 30.788 45.8607 25.0576 46.1987C19.0155 46.5537 13.8003 43.175 9.23633 36.5747C6.50527 32.3481 4.49039 28.0185 3.19336 23.5806L2.94434 22.6909C2.48691 20.972 1.74787 16.9793 1.4834 13.0786C1.35115 11.128 1.33921 9.22084 1.5332 7.64307C1.73107 6.03407 2.13001 4.8905 2.71387 4.3335C3.4461 3.63881 4.60894 3.40936 6.0918 3.50342H6.09277C8.19033 3.63273 10.3442 4.15018 12.4707 4.72021L14.585 5.29541C20.7337 6.95284 26.7564 6.41204 32.6094 3.7085H32.6104C33.388 3.34828 34.1503 2.97518 34.8799 2.62451H34.8809C36.6457 1.77073 38.2006 1.05955 39.5488 0.837402ZM32.8096 29.0776C30.2336 31.1357 27.5862 32.2023 24.8613 32.394C22.1324 32.586 19.2852 31.9038 16.3115 30.3989L15.3428 29.9087L15.5996 30.9634C16.1584 33.258 17.2026 34.988 19.1494 36.3804H19.1504C21.3246 37.9325 23.6251 38.7073 25.8203 38.4888C28.0287 38.2688 30.052 37.0513 31.665 34.7788L31.6641 34.7778C32.7634 33.2302 33.4001 31.4717 33.6191 29.5249L33.7539 28.3237L32.8096 29.0776ZM62.3662 24.2202C59.4946 21.8573 55.3054 21.3256 52.2168 23.8013L51.9199 24.0396L52.0703 24.3892C52.8171 26.1212 54.1182 27.0303 55.7334 27.6841V27.6851C57.77 28.5267 60.3226 28.8948 62.1104 28.6909C62.8243 28.6524 63.4473 28.503 63.8691 28.1528L63.8701 28.1519C64.2812 27.8088 64.4261 27.3628 64.3721 26.9097C64.3226 26.4946 64.1116 26.1008 63.8799 25.772C63.4122 25.1083 62.7154 24.5094 62.3672 24.2212L62.3662 24.2202ZM17.5576 16.3247C14.9492 14.2643 11.8156 14.3724 9.48438 15.1821C8.31785 15.5873 7.31705 16.1785 6.65137 16.8013C6.32026 17.1111 6.05021 17.4492 5.89551 17.7974C5.73981 18.148 5.68216 18.5606 5.87598 18.9458V18.9478C6.04459 19.2803 6.35052 19.5336 6.71387 19.7339C7.08169 19.9367 7.55248 20.1085 8.11719 20.2563C8.77936 20.4502 10.1081 20.6897 11.6055 20.8579C13.1195 21.028 14.8497 21.1308 16.2959 21.0376C17.0172 20.9911 17.6921 20.8946 18.2412 20.7212C18.771 20.5539 19.2876 20.2827 19.5469 19.812C19.8315 19.2951 19.7177 18.7169 19.3779 18.1646C19.0422 17.6189 18.4396 17.011 17.5576 16.3247ZM36.9746 13.0669C34.5345 12.6935 31.4317 13.157 29.2402 15.6597C28.4973 16.4953 28.0152 17.2024 27.7842 17.8003C27.5503 18.4056 27.5441 18.9949 27.918 19.4517C28.2585 19.8676 28.8157 20.0405 29.3672 20.1089C29.9387 20.1798 30.6192 20.1521 31.3369 20.0669C32.7763 19.896 34.46 19.4798 35.918 19.0376C37.3591 18.6005 38.6211 18.1244 39.2363 17.814L39.2373 17.8149C39.7666 17.5666 40.1991 17.3114 40.5244 17.0444C40.8459 16.7806 41.0994 16.4734 41.2041 16.1138C41.3247 15.7002 41.1939 15.3053 40.9775 14.9888C40.7624 14.6742 40.4355 14.3908 40.0537 14.146C39.2862 13.6541 38.1953 13.2537 36.9746 13.0669Z" stroke="#404040"/>
</g>
<defs>
<clipPath id="clip0_1047_2882">
<rect width="69.874" height="50.2618" fill="white" transform="translate(0.885986 0.269043)"/>
</clipPath>
</defs>
</svg>
