<svg width="58" height="51" viewBox="0 0 58 51" fill="none" xmlns="http://www.w3.org/2000/svg">
<mask id="path-1-inside-1_1047_881" fill="white">
<path fill-rule="evenodd" clip-rule="evenodd" d="M13.3246 32.6675L13.2738 35.6423H18.6422C19.7814 35.6423 20.7084 36.5693 20.7084 37.7084V39.7746H20.6853V47.0754C20.6853 48.2146 19.7583 49.1416 18.6192 49.1416H16.553V40.5172C16.553 39.6639 16.7144 39.77 15.8888 39.77H10.5804V39.7562H7.93312C6.22667 39.7562 4.82923 38.3541 4.82923 36.6523V26.4736C4.82923 24.7348 6.24973 23.3143 7.98846 23.3143H9.55194C12.0332 23.3143 12.2776 24.4996 12.9049 25.7403L15.5429 26.778C17.4523 27.6404 16.9634 27.811 18.264 26.2015L19.952 24.1122C20.7776 22.7932 24.5641 24.1722 23.162 26.3859L20.1965 29.7296C19.1772 31.1225 17.8259 31.3162 16.184 30.6336L13.3292 29.6282L13.3246 32.6675ZM37.2886 9.77806H35.6421V9.61202C35.6421 9.33069 35.6744 9.1047 35.739 8.92944C35.8035 8.75419 35.8958 8.59277 36.0203 8.44979C36.1448 8.30682 36.4262 8.04855 36.8643 7.68881C37.0949 7.49511 37.2148 7.32446 37.2148 7.16765C37.2148 7.00623 37.1687 6.88632 37.0718 6.79869C36.975 6.71106 36.8366 6.66494 36.6475 6.66494C36.44 6.66494 36.274 6.73412 36.1356 6.86787C36.0019 7.00162 35.9142 7.24145 35.8773 7.57812L34.2032 7.37058C34.2585 6.75718 34.4845 6.25909 34.8765 5.88551C35.2685 5.51194 35.8681 5.32285 36.6706 5.32285C37.2978 5.32285 37.8052 5.4566 38.1926 5.71487C38.7183 6.06999 38.9812 6.54042 38.9812 7.13537C38.9812 7.37981 38.912 7.61502 38.7783 7.84562C38.6445 8.07161 38.3678 8.35294 37.9481 8.6804C37.6576 8.911 37.4731 9.09548 37.3993 9.23845C37.3255 9.3722 37.2886 9.55207 37.2886 9.77806ZM34.8581 3.75476H37.4731H40.8076C41.1212 3.75476 41.4071 3.8101 41.6654 3.91618C41.9237 4.02226 42.1635 4.18368 42.3803 4.40506C42.597 4.62182 42.7631 4.86164 42.8692 5.11992C42.9752 5.37819 43.0306 5.66414 43.0306 5.97775V10.6451C43.0306 10.9587 42.9752 11.2447 42.8692 11.503C42.7631 11.7612 42.6017 12.001 42.3803 12.2178C42.1589 12.4346 41.9191 12.6006 41.6608 12.7067C41.4025 12.8128 41.1166 12.8681 40.8076 12.8681H37.5838C37.3393 12.8681 37.1456 13.0664 37.1456 13.3063C37.1456 13.357 37.1549 13.4077 37.1733 13.4538C37.2471 13.7444 37.3347 14.0303 37.4316 14.3071C37.5331 14.5976 37.6437 14.8789 37.7636 15.1464C37.8236 15.2848 37.8928 15.4186 37.9712 15.5523C37.5515 15.3678 37.1549 15.1511 36.7905 14.9112C36.4031 14.6576 36.048 14.3762 35.7159 14.0672C35.3838 13.7536 35.0795 13.4123 34.8027 13.0434C34.7151 12.9281 34.586 12.8681 34.4522 12.8681H32.6904C32.3814 12.8681 32.0955 12.8128 31.8372 12.7067C31.5789 12.6006 31.3391 12.4346 31.1177 12.2178C30.901 12.001 30.7349 11.7612 30.6289 11.503C30.5228 11.2447 30.4674 10.9587 30.4674 10.6451V5.97775C30.4674 5.66414 30.5228 5.37819 30.6289 5.11992C30.7349 4.86164 30.8964 4.62182 31.1177 4.40506C31.3345 4.18829 31.5743 4.02226 31.8326 3.91618C32.0909 3.8101 32.3768 3.75476 32.6904 3.75476H34.8581ZM37.4777 2.87848H34.8627H32.695C32.2707 2.87848 31.8741 2.95227 31.5051 3.10447C31.1362 3.25666 30.8041 3.48265 30.5043 3.78243C30.2046 4.08221 29.9786 4.41889 29.8264 4.78324C29.6742 5.1522 29.5958 5.54884 29.5958 5.97314V10.6405C29.5958 11.0648 29.6742 11.4614 29.8264 11.8304C29.9786 12.1994 30.2046 12.5314 30.5043 12.8358C30.8041 13.1356 31.1408 13.3616 31.5098 13.5138C31.8787 13.666 32.2754 13.7444 32.695 13.7444H34.2447C34.5168 14.0903 34.8074 14.4085 35.121 14.7037C35.4899 15.0496 35.8912 15.3632 36.3155 15.6445C36.7444 15.9259 37.201 16.1749 37.6806 16.3825C38.1649 16.5946 38.6768 16.7699 39.2164 16.9082C39.3686 16.9497 39.5393 16.9036 39.6546 16.7745C39.816 16.5946 39.7976 16.3179 39.6177 16.1565C39.364 15.9305 39.1519 15.7045 38.9766 15.4785C38.806 15.2571 38.6722 15.0311 38.5661 14.7959V14.7913C38.4508 14.5377 38.3494 14.284 38.2617 14.0211C38.2295 13.9289 38.1972 13.8366 38.1695 13.7398H40.8122C41.2365 13.7398 41.6285 13.6614 41.9975 13.5092C42.3664 13.357 42.7031 13.131 43.0029 12.8312C43.3027 12.5314 43.5287 12.1948 43.6809 11.8258C43.8331 11.4568 43.9069 11.0602 43.9069 10.6359V5.97775C43.9069 5.55345 43.8331 5.15681 43.6809 4.78785C43.5287 4.41889 43.3027 4.08683 43.0029 3.78704C42.7031 3.48726 42.3664 3.26127 42.0021 3.10908C41.6331 2.95688 41.2365 2.87848 40.8122 2.87848H37.4777ZM35.5868 10.3499H37.3486V11.4845H35.5868V10.3499ZM15.4369 5.19832C15.9673 5.19832 16.3962 5.62724 16.3962 6.15762C16.3962 6.688 15.9673 7.11692 15.4369 7.11692C14.9065 7.11692 14.4776 6.688 14.4776 6.15762C14.4776 5.62724 14.9065 5.19832 15.4369 5.19832ZM23.245 5.19832C23.7754 5.19832 24.2043 5.62724 24.2043 6.15762C24.2043 6.688 23.7754 7.11692 23.245 7.11692C22.7146 7.11692 22.2857 6.688 22.2857 6.15762C22.2857 5.62724 22.7146 5.19832 23.245 5.19832ZM19.3386 5.19832C19.869 5.19832 20.2979 5.62724 20.2979 6.15762C20.2979 6.688 19.869 7.11692 19.3386 7.11692C18.8083 7.11692 18.3793 6.688 18.3793 6.15762C18.3793 5.62724 18.8129 5.19832 19.3386 5.19832ZM23.2542 0.185059C25.1728 0.185059 26.704 1.71625 26.704 3.63485V8.31605C26.704 10.2346 25.1728 11.7704 23.2542 11.7704H21.0497C19.6292 13.5737 17.7106 14.7221 15.5107 15.294C15.34 15.3401 15.1509 15.2848 15.0264 15.1464C14.8465 14.9435 14.8696 14.6391 15.0679 14.4593C15.9949 13.6383 16.3316 12.9004 16.6821 11.7704H15.4276C14.0348 11.7704 12.7665 10.9357 12.2315 9.64431C12.0609 9.23384 11.9779 8.79108 11.9779 8.31605V3.63485C11.9779 1.72086 13.5137 0.185059 15.4276 0.185059C18.2963 0.185059 20.3856 0.185059 23.2542 0.185059ZM55.3677 47.2046C55.3493 47.0754 55.2985 46.9555 55.1971 46.8587C53.8734 45.5304 52.0701 44.7833 50.2207 44.5942L50.3775 42.9108H55.9811C56.5622 42.9108 57.0419 42.4311 57.0419 41.85C57.0419 37.4502 56.0042 34.1433 57.0419 29.1393C57.3463 27.6542 54.2885 27.4421 54.2885 29.2177V40.4895H43.6901C43.109 40.4895 42.6293 41.2735 42.6293 41.8546V42.6802C42.6293 42.8093 42.7354 42.9154 42.8645 42.9154H48.4866L48.7034 44.5711C46.8632 44.691 45.0322 45.369 43.6578 46.6235C43.4872 46.7803 43.4272 47.0109 43.4779 47.2184C43.2012 47.4213 43.026 47.6289 43.026 48.127C43.026 48.6251 43.5333 49.2569 44.1559 49.2569C44.7785 49.2569 45.2859 48.6251 45.2859 48.127C45.2859 47.6289 45.1014 47.4213 44.8246 47.2138C46.0192 46.2914 47.5088 45.8118 49.0124 45.7656L49.1369 46.9878C49.1507 47.1308 48.3159 47.1769 48.3159 48.1316C48.3159 48.7035 48.8233 49.2615 49.4459 49.2615C50.0685 49.2615 50.5758 48.7035 50.5758 48.1316C50.5758 47.5643 50.2299 47.1815 49.7595 47.0478L49.8517 45.7795C51.3091 45.8763 52.7896 46.3836 53.9195 47.3245C53.712 47.5274 53.5829 47.6612 53.5829 48.127C53.5829 48.5928 54.0902 49.2569 54.7128 49.2569C55.3354 49.2569 55.8428 48.6251 55.8428 48.127C55.8382 47.6197 55.6537 47.4075 55.3677 47.2046ZM46.3282 13.5553C43.9438 13.5553 42.0021 15.4923 42.0021 17.8768C42.0021 20.2612 43.9391 22.1982 46.3282 22.1982C48.7126 22.1982 50.6496 20.2612 50.6496 17.8768C50.645 15.4923 48.7126 13.5553 46.3282 13.5553ZM44.5249 30.5091L44.6079 35.6376H39.2441C38.1049 35.6376 37.1779 36.5647 37.1779 37.7038V39.77H37.201V47.0708C37.201 48.21 38.128 49.137 39.2672 49.137H41.3334V40.3603C41.3334 39.4518 41.6746 39.77 42.6985 39.77H47.3105V39.7562H49.9578C51.6689 39.7562 53.0617 38.3541 53.0617 36.6523V25.8694C53.0617 24.1307 51.6412 22.7102 49.9025 22.7102H48.339C45.0875 22.7102 45.6041 24.9516 44.1605 26.3583C42.74 27.7465 43.0951 27.9079 41.1535 27.9079H36.9658C34.4661 27.9079 33.8573 31.1732 37.4131 31.1732H41.2503C42.966 31.1778 43.1136 31.4499 44.5249 30.5091ZM39.1242 31.842C32.386 31.842 25.0944 31.842 18.3563 31.842C18.2548 31.842 18.1718 31.925 18.1718 32.0218V34.6507C18.1718 34.7521 18.2548 34.8305 18.3563 34.8305C21.8752 34.8305 23.7154 34.8305 27.239 34.8305V50.1886C27.239 50.3223 27.3497 50.433 27.4835 50.433H30.7857C30.9194 50.433 31.0301 50.3223 31.0301 50.1886V34.8444C33.3546 34.8444 36.7997 34.8444 39.1242 34.8444C39.2211 34.8444 39.3041 34.7614 39.3041 34.6645V32.0357C39.3041 31.9296 40.517 31.8512 40.4202 31.8512H39.1242V31.842ZM0.964358 29.7481H2.47249C2.78149 29.7481 2.98442 30.0064 3.03054 30.3061C3.59782 33.8989 3.91144 37.4871 3.89299 41.0706H14.2009C14.6113 41.0706 14.9388 41.4027 14.9388 41.8085V43.3028H14.3484V50.1701C14.3484 50.2946 14.247 50.3961 14.1224 50.3961H12.1439C12.0194 50.3961 11.9179 50.2946 11.9179 50.1701V46.8448H3.48713C3.36261 47.8595 3.21041 48.8695 3.03054 49.8842C2.9752 50.1886 2.77688 50.4422 2.47249 50.4422H0.964358C0.659965 50.4422 0.318676 50.1793 0.406304 49.8842C2.39408 42.9708 1.979 36.989 0.406304 30.3061C0.332512 30.0064 0.659965 29.7481 0.964358 29.7481ZM11.9225 45.8164V43.3074H3.86071C3.81459 44.7095 3.71773 44.4189 3.56554 45.8164H11.9225ZM9.45047 13.4031C11.8349 13.4031 13.7719 15.3401 13.7719 17.7246C13.7719 20.109 11.8349 22.046 9.45047 22.046C7.06606 22.046 5.12901 20.109 5.12901 17.7246C5.12901 15.3401 7.06145 13.4031 9.45047 13.4031Z"/>
</mask>
<path fill-rule="evenodd" clip-rule="evenodd" d="M13.3246 32.6675L13.2738 35.6423H18.6422C19.7814 35.6423 20.7084 36.5693 20.7084 37.7084V39.7746H20.6853V47.0754C20.6853 48.2146 19.7583 49.1416 18.6192 49.1416H16.553V40.5172C16.553 39.6639 16.7144 39.77 15.8888 39.77H10.5804V39.7562H7.93312C6.22667 39.7562 4.82923 38.3541 4.82923 36.6523V26.4736C4.82923 24.7348 6.24973 23.3143 7.98846 23.3143H9.55194C12.0332 23.3143 12.2776 24.4996 12.9049 25.7403L15.5429 26.778C17.4523 27.6404 16.9634 27.811 18.264 26.2015L19.952 24.1122C20.7776 22.7932 24.5641 24.1722 23.162 26.3859L20.1965 29.7296C19.1772 31.1225 17.8259 31.3162 16.184 30.6336L13.3292 29.6282L13.3246 32.6675ZM37.2886 9.77806H35.6421V9.61202C35.6421 9.33069 35.6744 9.1047 35.739 8.92944C35.8035 8.75419 35.8958 8.59277 36.0203 8.44979C36.1448 8.30682 36.4262 8.04855 36.8643 7.68881C37.0949 7.49511 37.2148 7.32446 37.2148 7.16765C37.2148 7.00623 37.1687 6.88632 37.0718 6.79869C36.975 6.71106 36.8366 6.66494 36.6475 6.66494C36.44 6.66494 36.274 6.73412 36.1356 6.86787C36.0019 7.00162 35.9142 7.24145 35.8773 7.57812L34.2032 7.37058C34.2585 6.75718 34.4845 6.25909 34.8765 5.88551C35.2685 5.51194 35.8681 5.32285 36.6706 5.32285C37.2978 5.32285 37.8052 5.4566 38.1926 5.71487C38.7183 6.06999 38.9812 6.54042 38.9812 7.13537C38.9812 7.37981 38.912 7.61502 38.7783 7.84562C38.6445 8.07161 38.3678 8.35294 37.9481 8.6804C37.6576 8.911 37.4731 9.09548 37.3993 9.23845C37.3255 9.3722 37.2886 9.55207 37.2886 9.77806ZM34.8581 3.75476H37.4731H40.8076C41.1212 3.75476 41.4071 3.8101 41.6654 3.91618C41.9237 4.02226 42.1635 4.18368 42.3803 4.40506C42.597 4.62182 42.7631 4.86164 42.8692 5.11992C42.9752 5.37819 43.0306 5.66414 43.0306 5.97775V10.6451C43.0306 10.9587 42.9752 11.2447 42.8692 11.503C42.7631 11.7612 42.6017 12.001 42.3803 12.2178C42.1589 12.4346 41.9191 12.6006 41.6608 12.7067C41.4025 12.8128 41.1166 12.8681 40.8076 12.8681H37.5838C37.3393 12.8681 37.1456 13.0664 37.1456 13.3063C37.1456 13.357 37.1549 13.4077 37.1733 13.4538C37.2471 13.7444 37.3347 14.0303 37.4316 14.3071C37.5331 14.5976 37.6437 14.8789 37.7636 15.1464C37.8236 15.2848 37.8928 15.4186 37.9712 15.5523C37.5515 15.3678 37.1549 15.1511 36.7905 14.9112C36.4031 14.6576 36.048 14.3762 35.7159 14.0672C35.3838 13.7536 35.0795 13.4123 34.8027 13.0434C34.7151 12.9281 34.586 12.8681 34.4522 12.8681H32.6904C32.3814 12.8681 32.0955 12.8128 31.8372 12.7067C31.5789 12.6006 31.3391 12.4346 31.1177 12.2178C30.901 12.001 30.7349 11.7612 30.6289 11.503C30.5228 11.2447 30.4674 10.9587 30.4674 10.6451V5.97775C30.4674 5.66414 30.5228 5.37819 30.6289 5.11992C30.7349 4.86164 30.8964 4.62182 31.1177 4.40506C31.3345 4.18829 31.5743 4.02226 31.8326 3.91618C32.0909 3.8101 32.3768 3.75476 32.6904 3.75476H34.8581ZM37.4777 2.87848H34.8627H32.695C32.2707 2.87848 31.8741 2.95227 31.5051 3.10447C31.1362 3.25666 30.8041 3.48265 30.5043 3.78243C30.2046 4.08221 29.9786 4.41889 29.8264 4.78324C29.6742 5.1522 29.5958 5.54884 29.5958 5.97314V10.6405C29.5958 11.0648 29.6742 11.4614 29.8264 11.8304C29.9786 12.1994 30.2046 12.5314 30.5043 12.8358C30.8041 13.1356 31.1408 13.3616 31.5098 13.5138C31.8787 13.666 32.2754 13.7444 32.695 13.7444H34.2447C34.5168 14.0903 34.8074 14.4085 35.121 14.7037C35.4899 15.0496 35.8912 15.3632 36.3155 15.6445C36.7444 15.9259 37.201 16.1749 37.6806 16.3825C38.1649 16.5946 38.6768 16.7699 39.2164 16.9082C39.3686 16.9497 39.5393 16.9036 39.6546 16.7745C39.816 16.5946 39.7976 16.3179 39.6177 16.1565C39.364 15.9305 39.1519 15.7045 38.9766 15.4785C38.806 15.2571 38.6722 15.0311 38.5661 14.7959V14.7913C38.4508 14.5377 38.3494 14.284 38.2617 14.0211C38.2295 13.9289 38.1972 13.8366 38.1695 13.7398H40.8122C41.2365 13.7398 41.6285 13.6614 41.9975 13.5092C42.3664 13.357 42.7031 13.131 43.0029 12.8312C43.3027 12.5314 43.5287 12.1948 43.6809 11.8258C43.8331 11.4568 43.9069 11.0602 43.9069 10.6359V5.97775C43.9069 5.55345 43.8331 5.15681 43.6809 4.78785C43.5287 4.41889 43.3027 4.08683 43.0029 3.78704C42.7031 3.48726 42.3664 3.26127 42.0021 3.10908C41.6331 2.95688 41.2365 2.87848 40.8122 2.87848H37.4777ZM35.5868 10.3499H37.3486V11.4845H35.5868V10.3499ZM15.4369 5.19832C15.9673 5.19832 16.3962 5.62724 16.3962 6.15762C16.3962 6.688 15.9673 7.11692 15.4369 7.11692C14.9065 7.11692 14.4776 6.688 14.4776 6.15762C14.4776 5.62724 14.9065 5.19832 15.4369 5.19832ZM23.245 5.19832C23.7754 5.19832 24.2043 5.62724 24.2043 6.15762C24.2043 6.688 23.7754 7.11692 23.245 7.11692C22.7146 7.11692 22.2857 6.688 22.2857 6.15762C22.2857 5.62724 22.7146 5.19832 23.245 5.19832ZM19.3386 5.19832C19.869 5.19832 20.2979 5.62724 20.2979 6.15762C20.2979 6.688 19.869 7.11692 19.3386 7.11692C18.8083 7.11692 18.3793 6.688 18.3793 6.15762C18.3793 5.62724 18.8129 5.19832 19.3386 5.19832ZM23.2542 0.185059C25.1728 0.185059 26.704 1.71625 26.704 3.63485V8.31605C26.704 10.2346 25.1728 11.7704 23.2542 11.7704H21.0497C19.6292 13.5737 17.7106 14.7221 15.5107 15.294C15.34 15.3401 15.1509 15.2848 15.0264 15.1464C14.8465 14.9435 14.8696 14.6391 15.0679 14.4593C15.9949 13.6383 16.3316 12.9004 16.6821 11.7704H15.4276C14.0348 11.7704 12.7665 10.9357 12.2315 9.64431C12.0609 9.23384 11.9779 8.79108 11.9779 8.31605V3.63485C11.9779 1.72086 13.5137 0.185059 15.4276 0.185059C18.2963 0.185059 20.3856 0.185059 23.2542 0.185059ZM55.3677 47.2046C55.3493 47.0754 55.2985 46.9555 55.1971 46.8587C53.8734 45.5304 52.0701 44.7833 50.2207 44.5942L50.3775 42.9108H55.9811C56.5622 42.9108 57.0419 42.4311 57.0419 41.85C57.0419 37.4502 56.0042 34.1433 57.0419 29.1393C57.3463 27.6542 54.2885 27.4421 54.2885 29.2177V40.4895H43.6901C43.109 40.4895 42.6293 41.2735 42.6293 41.8546V42.6802C42.6293 42.8093 42.7354 42.9154 42.8645 42.9154H48.4866L48.7034 44.5711C46.8632 44.691 45.0322 45.369 43.6578 46.6235C43.4872 46.7803 43.4272 47.0109 43.4779 47.2184C43.2012 47.4213 43.026 47.6289 43.026 48.127C43.026 48.6251 43.5333 49.2569 44.1559 49.2569C44.7785 49.2569 45.2859 48.6251 45.2859 48.127C45.2859 47.6289 45.1014 47.4213 44.8246 47.2138C46.0192 46.2914 47.5088 45.8118 49.0124 45.7656L49.1369 46.9878C49.1507 47.1308 48.3159 47.1769 48.3159 48.1316C48.3159 48.7035 48.8233 49.2615 49.4459 49.2615C50.0685 49.2615 50.5758 48.7035 50.5758 48.1316C50.5758 47.5643 50.2299 47.1815 49.7595 47.0478L49.8517 45.7795C51.3091 45.8763 52.7896 46.3836 53.9195 47.3245C53.712 47.5274 53.5829 47.6612 53.5829 48.127C53.5829 48.5928 54.0902 49.2569 54.7128 49.2569C55.3354 49.2569 55.8428 48.6251 55.8428 48.127C55.8382 47.6197 55.6537 47.4075 55.3677 47.2046ZM46.3282 13.5553C43.9438 13.5553 42.0021 15.4923 42.0021 17.8768C42.0021 20.2612 43.9391 22.1982 46.3282 22.1982C48.7126 22.1982 50.6496 20.2612 50.6496 17.8768C50.645 15.4923 48.7126 13.5553 46.3282 13.5553ZM44.5249 30.5091L44.6079 35.6376H39.2441C38.1049 35.6376 37.1779 36.5647 37.1779 37.7038V39.77H37.201V47.0708C37.201 48.21 38.128 49.137 39.2672 49.137H41.3334V40.3603C41.3334 39.4518 41.6746 39.77 42.6985 39.77H47.3105V39.7562H49.9578C51.6689 39.7562 53.0617 38.3541 53.0617 36.6523V25.8694C53.0617 24.1307 51.6412 22.7102 49.9025 22.7102H48.339C45.0875 22.7102 45.6041 24.9516 44.1605 26.3583C42.74 27.7465 43.0951 27.9079 41.1535 27.9079H36.9658C34.4661 27.9079 33.8573 31.1732 37.4131 31.1732H41.2503C42.966 31.1778 43.1136 31.4499 44.5249 30.5091ZM39.1242 31.842C32.386 31.842 25.0944 31.842 18.3563 31.842C18.2548 31.842 18.1718 31.925 18.1718 32.0218V34.6507C18.1718 34.7521 18.2548 34.8305 18.3563 34.8305C21.8752 34.8305 23.7154 34.8305 27.239 34.8305V50.1886C27.239 50.3223 27.3497 50.433 27.4835 50.433H30.7857C30.9194 50.433 31.0301 50.3223 31.0301 50.1886V34.8444C33.3546 34.8444 36.7997 34.8444 39.1242 34.8444C39.2211 34.8444 39.3041 34.7614 39.3041 34.6645V32.0357C39.3041 31.9296 40.517 31.8512 40.4202 31.8512H39.1242V31.842ZM0.964358 29.7481H2.47249C2.78149 29.7481 2.98442 30.0064 3.03054 30.3061C3.59782 33.8989 3.91144 37.4871 3.89299 41.0706H14.2009C14.6113 41.0706 14.9388 41.4027 14.9388 41.8085V43.3028H14.3484V50.1701C14.3484 50.2946 14.247 50.3961 14.1224 50.3961H12.1439C12.0194 50.3961 11.9179 50.2946 11.9179 50.1701V46.8448H3.48713C3.36261 47.8595 3.21041 48.8695 3.03054 49.8842C2.9752 50.1886 2.77688 50.4422 2.47249 50.4422H0.964358C0.659965 50.4422 0.318676 50.1793 0.406304 49.8842C2.39408 42.9708 1.979 36.989 0.406304 30.3061C0.332512 30.0064 0.659965 29.7481 0.964358 29.7481ZM11.9225 45.8164V43.3074H3.86071C3.81459 44.7095 3.71773 44.4189 3.56554 45.8164H11.9225ZM9.45047 13.4031C11.8349 13.4031 13.7719 15.3401 13.7719 17.7246C13.7719 20.109 11.8349 22.046 9.45047 22.046C7.06606 22.046 5.12901 20.109 5.12901 17.7246C5.12901 15.3401 7.06145 13.4031 9.45047 13.4031Z" stroke="#404040" stroke-width="1.67539" mask="url(#path-1-inside-1_1047_881)"/>
</svg>
