<svg width="43" height="51" viewBox="0 0 43 51" fill="none" xmlns="http://www.w3.org/2000/svg">
<mask id="path-1-inside-1_1047_3478" fill="white">
<path fill-rule="evenodd" clip-rule="evenodd" d="M32.0572 8.82397C31.3905 9.28208 30.9692 9.96516 30.8301 10.6973C30.691 11.4336 30.8342 12.223 31.2923 12.8897C31.4109 13.0615 31.5418 13.217 31.6891 13.356C32.5071 13.4501 33.5134 13.0247 34.3928 12.3907C35.3049 11.7322 36.0698 10.8609 36.3643 10.0961C36.3725 10.0797 36.3766 10.0633 36.3807 10.047C36.3111 9.89154 36.2252 9.73611 36.123 9.58885C35.6649 8.92213 34.9818 8.50083 34.2496 8.36176C33.5134 8.22678 32.7239 8.36585 32.0572 8.82397ZM15.3728 13.7242C15.5937 13.5933 15.8227 13.4992 16.06 13.4338L16.0763 13.3438H16.1132H16.1172L16.4813 13.3519C16.7717 13.3192 17.0662 13.3356 17.3484 13.3969C18.0274 13.4419 18.7146 13.5033 19.3241 13.5606C19.7822 13.6015 20.1953 13.6424 20.5511 13.6669C25.3573 13.9819 27.611 16.5097 29.3576 18.4771C30.1266 19.3483 30.8015 20.0969 31.5214 20.4405C31.8609 20.6 32.3967 20.375 33.0062 20.1173C33.3743 19.9619 33.7629 19.7942 34.176 19.6878C34.4419 19.5897 34.5891 19.5324 34.6995 19.4874C34.8468 19.4302 34.945 19.3933 35.0022 19.3729L36.986 18.5916C36.0289 17.5731 34.7036 16.0106 33.816 14.9635C33.5093 14.6036 33.2557 14.305 33.0798 14.1005C32.818 14.0432 32.5685 13.9491 32.3313 13.8223C33.1043 13.6874 33.9306 13.2865 34.6668 12.7548C35.4644 12.178 36.168 11.4459 36.5934 10.7301C36.6465 11.0368 36.6506 11.3436 36.6097 11.6463C36.757 11.9244 36.9697 12.313 37.2233 12.7793C38.0127 14.2232 39.1784 16.3624 39.6815 17.5691C40.1969 17.4832 40.7614 17.6181 41.2645 17.9167C41.6858 18.1662 42.0744 18.5385 42.3525 18.9843C42.6307 19.4383 42.8025 19.9783 42.7984 20.5754C42.7943 21.4303 42.4139 22.3874 41.4649 23.3323C41.424 23.3732 41.3749 23.4018 41.3218 23.4182L36.941 25.1525L36.5361 25.2957C34.1883 26.1301 32.4908 26.7273 29.5171 25.9951C29.4926 25.991 29.4762 25.9787 29.4558 25.9706C27.3738 25.1607 26.2939 24.0399 25.2468 22.9437L25.0914 22.7842L23.762 28.8829C24.9482 29.6314 26.1385 30.1836 27.2593 30.7071C30.6665 32.2983 33.4643 33.6031 34.0655 38.9532C34.1964 40.1108 34.0983 41.3133 34.0369 42.4791L34.4132 50.0707C34.405 50.2752 34.2332 50.4306 34.0328 50.4266L28.7686 50.4429C28.5641 50.4429 28.4005 50.2752 28.4005 50.0748C28.4577 46.5039 27.7706 45.5345 27.9546 41.9678C28.016 40.8961 28.1632 39.6159 27.7092 38.626L27.656 38.5156C27.4433 38.0533 27.247 37.628 26.9566 37.4889C26.3758 37.2189 25.4513 36.8835 24.4042 36.5399C23.2017 36.1432 21.86 35.7464 20.6779 35.411L14.7184 50.222C14.6529 50.3529 14.5098 50.4306 14.3748 50.4225L8.84467 50.4511C8.64015 50.4511 8.47654 50.2916 8.47654 50.0871C8.47654 50.038 11.168 43.4853 11.5116 42.4995C12.7918 38.8223 13.4954 35.8528 14.4034 32.8423C13.8635 32.1797 13.3481 31.4434 13.0004 30.6294C12.6118 29.7296 12.4237 28.7561 12.6159 27.7089L14.5793 20.6245L10.8898 22.821C9.97769 23.3609 8.88557 23.316 8.03888 22.8006L8.0307 22.8128L2.17337 19.2093C0.868557 18.4117 0.463616 16.706 1.26123 15.4012C2.06293 14.0964 3.76859 13.6914 5.06931 14.4931L9.50321 17.2214L15.3728 13.7242ZM40.1437 6.58247L40.3933 6.68064L40.3605 6.76245C40.925 7.15103 40.88 7.48234 40.3319 7.80957C40.5569 7.35554 40.5487 7.23692 40.2337 7.08558L39.7634 8.26768C39.7634 8.27586 39.7593 8.27995 39.7593 8.28813C39.6979 8.44357 39.477 8.52946 39.2643 8.48447C39.0516 8.43948 38.9289 8.27995 38.9903 8.12452C39.0721 7.91592 39.432 7.84638 39.5916 7.98545L40.1437 6.58247ZM34.7282 5.9812C34.8263 6.00165 34.9122 6.03846 34.9818 6.08755L35.6976 4.2919L33.5788 4.08329L32.7485 6.16935C32.7444 6.18162 32.7403 6.19389 32.7362 6.20617C32.6258 6.4884 32.2208 6.64792 31.8322 6.56611C31.4437 6.48431 31.2187 6.1898 31.3332 5.90757C31.4437 5.62534 31.8527 5.46582 32.2372 5.54763C32.3844 5.57626 32.5071 5.6417 32.5971 5.71942L33.6197 3.1507L33.6361 3.15888L36.3193 3.572L35.1699 6.46386C35.1658 6.4884 35.1577 6.50885 35.1495 6.5293C35.0554 6.76245 34.7159 6.90152 34.3928 6.83198C34.0696 6.76245 33.8815 6.51703 33.9756 6.28388C34.0615 6.04664 34.401 5.91166 34.7282 5.9812ZM37.5587 18.3626L39.1457 17.7327C38.3604 15.8716 37.3378 14.2232 36.3725 12.448C36.168 12.9797 35.8653 13.307 35.3581 13.6505C34.8591 13.99 34.5564 14.1455 33.996 14.1536C35.2027 15.5812 36.2784 17.0087 37.5587 18.3626ZM29.5703 13.7405C29.2308 13.6751 28.9036 13.9 28.8381 14.2395C28.7727 14.579 28.9976 14.9063 29.3371 14.9717C29.6766 15.0372 30.0039 14.8122 30.0693 14.4727C30.1348 14.1332 29.9098 13.806 29.5703 13.7405ZM20.9397 0.496087C22.445 -0.0192922 24.0197 0.127959 25.345 0.774229C26.6703 1.4205 27.7501 2.58215 28.2655 4.08738C28.7809 5.59262 28.6336 7.16739 27.9873 8.49265C27.3411 9.81791 26.1794 10.8978 24.6742 11.4131C23.1689 11.9285 21.5942 11.7813 20.2689 11.135C18.9437 10.4887 17.8638 9.32708 17.3484 7.82184C16.8331 6.3166 16.9803 4.74183 17.6266 3.41657C18.2728 2.09131 19.4304 1.01147 20.9397 0.496087Z"/>
</mask>
<path fill-rule="evenodd" clip-rule="evenodd" d="M32.0572 8.82397C31.3905 9.28208 30.9692 9.96516 30.8301 10.6973C30.691 11.4336 30.8342 12.223 31.2923 12.8897C31.4109 13.0615 31.5418 13.217 31.6891 13.356C32.5071 13.4501 33.5134 13.0247 34.3928 12.3907C35.3049 11.7322 36.0698 10.8609 36.3643 10.0961C36.3725 10.0797 36.3766 10.0633 36.3807 10.047C36.3111 9.89154 36.2252 9.73611 36.123 9.58885C35.6649 8.92213 34.9818 8.50083 34.2496 8.36176C33.5134 8.22678 32.7239 8.36585 32.0572 8.82397ZM15.3728 13.7242C15.5937 13.5933 15.8227 13.4992 16.06 13.4338L16.0763 13.3438H16.1132H16.1172L16.4813 13.3519C16.7717 13.3192 17.0662 13.3356 17.3484 13.3969C18.0274 13.4419 18.7146 13.5033 19.3241 13.5606C19.7822 13.6015 20.1953 13.6424 20.5511 13.6669C25.3573 13.9819 27.611 16.5097 29.3576 18.4771C30.1266 19.3483 30.8015 20.0969 31.5214 20.4405C31.8609 20.6 32.3967 20.375 33.0062 20.1173C33.3743 19.9619 33.7629 19.7942 34.176 19.6878C34.4419 19.5897 34.5891 19.5324 34.6995 19.4874C34.8468 19.4302 34.945 19.3933 35.0022 19.3729L36.986 18.5916C36.0289 17.5731 34.7036 16.0106 33.816 14.9635C33.5093 14.6036 33.2557 14.305 33.0798 14.1005C32.818 14.0432 32.5685 13.9491 32.3313 13.8223C33.1043 13.6874 33.9306 13.2865 34.6668 12.7548C35.4644 12.178 36.168 11.4459 36.5934 10.7301C36.6465 11.0368 36.6506 11.3436 36.6097 11.6463C36.757 11.9244 36.9697 12.313 37.2233 12.7793C38.0127 14.2232 39.1784 16.3624 39.6815 17.5691C40.1969 17.4832 40.7614 17.6181 41.2645 17.9167C41.6858 18.1662 42.0744 18.5385 42.3525 18.9843C42.6307 19.4383 42.8025 19.9783 42.7984 20.5754C42.7943 21.4303 42.4139 22.3874 41.4649 23.3323C41.424 23.3732 41.3749 23.4018 41.3218 23.4182L36.941 25.1525L36.5361 25.2957C34.1883 26.1301 32.4908 26.7273 29.5171 25.9951C29.4926 25.991 29.4762 25.9787 29.4558 25.9706C27.3738 25.1607 26.2939 24.0399 25.2468 22.9437L25.0914 22.7842L23.762 28.8829C24.9482 29.6314 26.1385 30.1836 27.2593 30.7071C30.6665 32.2983 33.4643 33.6031 34.0655 38.9532C34.1964 40.1108 34.0983 41.3133 34.0369 42.4791L34.4132 50.0707C34.405 50.2752 34.2332 50.4306 34.0328 50.4266L28.7686 50.4429C28.5641 50.4429 28.4005 50.2752 28.4005 50.0748C28.4577 46.5039 27.7706 45.5345 27.9546 41.9678C28.016 40.8961 28.1632 39.6159 27.7092 38.626L27.656 38.5156C27.4433 38.0533 27.247 37.628 26.9566 37.4889C26.3758 37.2189 25.4513 36.8835 24.4042 36.5399C23.2017 36.1432 21.86 35.7464 20.6779 35.411L14.7184 50.222C14.6529 50.3529 14.5098 50.4306 14.3748 50.4225L8.84467 50.4511C8.64015 50.4511 8.47654 50.2916 8.47654 50.0871C8.47654 50.038 11.168 43.4853 11.5116 42.4995C12.7918 38.8223 13.4954 35.8528 14.4034 32.8423C13.8635 32.1797 13.3481 31.4434 13.0004 30.6294C12.6118 29.7296 12.4237 28.7561 12.6159 27.7089L14.5793 20.6245L10.8898 22.821C9.97769 23.3609 8.88557 23.316 8.03888 22.8006L8.0307 22.8128L2.17337 19.2093C0.868557 18.4117 0.463616 16.706 1.26123 15.4012C2.06293 14.0964 3.76859 13.6914 5.06931 14.4931L9.50321 17.2214L15.3728 13.7242ZM40.1437 6.58247L40.3933 6.68064L40.3605 6.76245C40.925 7.15103 40.88 7.48234 40.3319 7.80957C40.5569 7.35554 40.5487 7.23692 40.2337 7.08558L39.7634 8.26768C39.7634 8.27586 39.7593 8.27995 39.7593 8.28813C39.6979 8.44357 39.477 8.52946 39.2643 8.48447C39.0516 8.43948 38.9289 8.27995 38.9903 8.12452C39.0721 7.91592 39.432 7.84638 39.5916 7.98545L40.1437 6.58247ZM34.7282 5.9812C34.8263 6.00165 34.9122 6.03846 34.9818 6.08755L35.6976 4.2919L33.5788 4.08329L32.7485 6.16935C32.7444 6.18162 32.7403 6.19389 32.7362 6.20617C32.6258 6.4884 32.2208 6.64792 31.8322 6.56611C31.4437 6.48431 31.2187 6.1898 31.3332 5.90757C31.4437 5.62534 31.8527 5.46582 32.2372 5.54763C32.3844 5.57626 32.5071 5.6417 32.5971 5.71942L33.6197 3.1507L33.6361 3.15888L36.3193 3.572L35.1699 6.46386C35.1658 6.4884 35.1577 6.50885 35.1495 6.5293C35.0554 6.76245 34.7159 6.90152 34.3928 6.83198C34.0696 6.76245 33.8815 6.51703 33.9756 6.28388C34.0615 6.04664 34.401 5.91166 34.7282 5.9812ZM37.5587 18.3626L39.1457 17.7327C38.3604 15.8716 37.3378 14.2232 36.3725 12.448C36.168 12.9797 35.8653 13.307 35.3581 13.6505C34.8591 13.99 34.5564 14.1455 33.996 14.1536C35.2027 15.5812 36.2784 17.0087 37.5587 18.3626ZM29.5703 13.7405C29.2308 13.6751 28.9036 13.9 28.8381 14.2395C28.7727 14.579 28.9976 14.9063 29.3371 14.9717C29.6766 15.0372 30.0039 14.8122 30.0693 14.4727C30.1348 14.1332 29.9098 13.806 29.5703 13.7405ZM20.9397 0.496087C22.445 -0.0192922 24.0197 0.127959 25.345 0.774229C26.6703 1.4205 27.7501 2.58215 28.2655 4.08738C28.7809 5.59262 28.6336 7.16739 27.9873 8.49265C27.3411 9.81791 26.1794 10.8978 24.6742 11.4131C23.1689 11.9285 21.5942 11.7813 20.2689 11.135C18.9437 10.4887 17.8638 9.32708 17.3484 7.82184C16.8331 6.3166 16.9803 4.74183 17.6266 3.41657C18.2728 2.09131 19.4304 1.01147 20.9397 0.496087Z" stroke="#404040" stroke-width="2" mask="url(#path-1-inside-1_1047_3478)"/>
</svg>
