<svg width="34" height="35" viewBox="0 0 34 35" fill="none" xmlns="http://www.w3.org/2000/svg">
<rect x="0.583333" y="0.826497" width="32.8333" height="32.8333" rx="16.4167" fill="#E5E7EB"/>
<rect x="0.583333" y="0.826497" width="32.8333" height="32.8333" rx="16.4167" stroke="#E3E3E3" stroke-width="0.833333"/>
<path d="M22.8333 15.7503V15.3336C22.8333 12.191 22.8332 10.6196 21.857 9.64328C20.8806 8.66699 19.3093 8.66699 16.1666 8.66699C13.024 8.66699 11.4527 8.66704 10.4764 9.64332C9.50008 10.6196 9.50006 12.1909 9.50003 15.3336L9.5 19.0837C9.49998 21.8232 9.49997 23.193 10.2566 24.1149C10.3951 24.2837 10.5499 24.4385 10.7187 24.5771C11.6406 25.3337 13.0104 25.3337 15.75 25.3337" stroke="#141B34" stroke-width="1.25" stroke-linecap="round" stroke-linejoin="round"/>
<path d="M12.8333 12.833H19.4999M12.8333 16.1663H16.1666" stroke="#141B34" stroke-width="1.25" stroke-linecap="round" stroke-linejoin="round"/>
<path d="M22 22.4163L20.75 21.958V19.9163M17 21.583C17 23.6541 18.6789 25.333 20.75 25.333C22.8211 25.333 24.5 23.6541 24.5 21.583C24.5 19.5119 22.8211 17.833 20.75 17.833C18.6789 17.833 17 19.5119 17 21.583Z" stroke="#141B34" stroke-width="1.25" stroke-linecap="round" stroke-linejoin="round"/>
</svg>
