<svg width="24" height="25" viewBox="0 0 24 25" fill="none" xmlns="http://www.w3.org/2000/svg">
<path d="M13.5 3.27685C12.2812 3.22173 11.0318 3.23431 9.8294 3.31424C5.64639 3.5923 2.31441 6.97155 2.04024 11.2139C1.98659 12.0441 1.98659 12.9039 2.04024 13.7341C2.1401 15.2792 2.82343 16.7098 3.62791 17.9178C4.09501 18.7635 3.78674 19.819 3.30021 20.741C2.94941 21.4058 2.77401 21.7382 2.91484 21.9783C3.05568 22.2184 3.37026 22.2261 3.99943 22.2414C5.24367 22.2717 6.08268 21.9189 6.74868 21.4278C7.1264 21.1493 7.31527 21.01 7.44544 20.994C7.5756 20.978 7.83177 21.0835 8.34401 21.2945C8.8044 21.4841 9.33896 21.6011 9.8294 21.6337C11.2536 21.7284 12.7435 21.7286 14.1706 21.6337C18.3536 21.3557 21.6856 17.9764 21.9598 13.7341C21.9809 13.4072 21.9937 13.0757 21.9982 12.7432" stroke="#1B650E" stroke-width="1.5" stroke-linecap="round" stroke-linejoin="round"/>
<path d="M8.5 15.2432H15.5M8.5 10.2432H12" stroke="#1B650E" stroke-width="1.5" stroke-linecap="round" stroke-linejoin="round"/>
<path d="M17 4.74316C17.4915 4.23746 18.7998 2.24316 19.5 2.24316M19.5 2.24316C20.2002 2.24316 21.5085 4.23746 22 4.74316M19.5 2.24316V10.2432" stroke="#1B650E" stroke-width="1.5" stroke-linecap="round" stroke-linejoin="round"/>
</svg>
