<svg width="24" height="25" viewBox="0 0 24 25" fill="none" xmlns="http://www.w3.org/2000/svg">
<path d="M15.5 18.2432C15.5 20.1762 13.933 21.7432 12 21.7432C10.067 21.7432 8.5 20.1762 8.5 18.2432" stroke="#1B650E" stroke-width="1.5" stroke-linecap="round" stroke-linejoin="round"/>
<path d="M19.2311 18.2432H4.76887C3.79195 18.2432 3 17.4512 3 16.4743C3 16.0052 3.18636 15.5553 3.51809 15.2235L4.12132 14.6203C4.68393 14.0577 5 13.2946 5 12.499V9.74316C5 5.87717 8.13401 2.74316 12 2.74316C15.866 2.74316 19 5.87716 19 9.74316V12.499C19 13.2946 19.3161 14.0577 19.8787 14.6203L20.4819 15.2235C20.8136 15.5553 21 16.0052 21 16.4743C21 17.4512 20.208 18.2432 19.2311 18.2432Z" stroke="#1B650E" stroke-width="1.5" stroke-linecap="round" stroke-linejoin="round"/>
</svg>
