<svg width="52" height="51" viewBox="0 0 52 51" fill="none" xmlns="http://www.w3.org/2000/svg">
<mask id="path-1-inside-1_1047_750" fill="white">
<path d="M38.5623 24.5371H40.9459C40.9707 24.5377 40.9947 24.5287 41.013 24.512C41.0302 24.4937 41.0405 24.47 41.0423 24.445V20.6747C41.0428 20.65 41.0338 20.626 41.0172 20.6077C40.9974 20.5902 40.9723 20.5798 40.9459 20.5783H11.3787C11.3655 20.5783 11.3524 20.5809 11.3402 20.5859C11.328 20.5909 11.3169 20.5983 11.3075 20.6077C11.2908 20.626 11.2818 20.65 11.2824 20.6747V24.445C11.2818 24.4697 11.2908 24.4937 11.3075 24.512C11.3271 24.5293 11.3526 24.5383 11.3787 24.5371H38.5623ZM25.4627 45.3867C20.5111 45.3867 23.7871 45.7721 24.449 40.389C25.4585 32.3374 33.1122 32.3374 34.2433 40.389C34.968 45.5668 38.0722 45.3867 33.2253 45.3867H31.2899C31.2899 46.7063 31.0804 46.5554 32.4419 47.2927C33.1415 47.6698 34.4401 47.9546 35.5503 48.3903C37.226 46.945 40.2463 47.9002 40.5773 45.2484C40.6276 44.8295 39.6724 43.845 39.4588 43.1119C38.9896 42.3621 38.822 41.1849 39.3331 40.3974C39.5342 40.0832 39.4546 39.6559 39.4546 39.2244C39.4546 34.9347 46.9658 34.9305 46.9658 39.2244C46.9658 39.7648 46.8443 40.0622 47.1334 40.4811C47.6235 41.1975 47.3721 42.4626 46.9574 43.1203C46.6893 43.8995 45.7007 44.8211 45.7635 45.2568C46.4589 48.7925 51.0838 45.1102 51.5194 50.5352H0.0218506C0.574822 44.1634 7.70899 48.0803 8.23264 43.6482C8.29129 43.1455 7.10575 41.7882 6.83346 40.8707C6.25116 39.9449 6.04589 38.4745 6.67846 37.4942C6.934 37.1047 6.82508 36.7318 6.82508 36.1998C6.82508 30.8712 16.1628 30.867 16.1628 36.1998C16.1628 36.8701 16.0078 37.0628 16.3722 37.5948C16.9838 38.4787 16.6696 40.0496 16.1544 40.8707C15.8234 41.8342 14.5625 43.1036 14.6714 43.6482C15.4548 47.6279 20.6871 44.486 22.103 48.8972C23.2467 48.1934 25.1737 47.9337 26.3844 47.2215C27.595 46.5094 27.3814 46.6057 27.373 45.4076L25.4627 45.3867ZM39.4253 26.0871V34.0466C38.8449 34.3784 38.3228 34.8029 37.8795 35.3033V26.0871H14.8138V29.8783C14.6672 29.8155 14.5206 29.761 14.3698 29.7108C14.0096 29.585 13.6415 29.4829 13.268 29.4049V26.0871H11.3787C10.9441 26.0831 10.528 25.9104 10.2183 25.6054C10.0659 25.4538 9.9449 25.2737 9.86223 25.0753C9.77956 24.8768 9.73686 24.6641 9.73656 24.4491V20.6789C9.74157 20.2506 9.91458 19.8414 10.2183 19.5394C10.3705 19.3867 10.5514 19.2655 10.7505 19.1829C10.9496 19.1002 11.1631 19.0576 11.3787 19.0577H12.8784V13.042C12.8771 12.8496 12.949 12.6639 13.0795 12.5226L15.283 9.74931C14.9785 9.27403 14.8526 8.7061 14.9276 8.14665C15.0026 7.5872 15.2738 7.07252 15.6927 6.69425C16.1117 6.31598 16.6513 6.09866 17.2155 6.08099C17.7796 6.06331 18.3318 6.24643 18.7736 6.59773C19.2154 6.94904 19.5182 7.44573 19.6281 7.99939C19.738 8.55305 19.6479 9.12775 19.3737 9.62116C19.0996 10.1146 18.6592 10.4947 18.1311 10.6938C17.6029 10.893 17.0212 10.8982 16.4895 10.7086L14.4242 13.3059V19.0493H16.4267C16.4267 17.1809 16.4267 16.6196 18.8899 15.2497C19.9246 14.6716 22.6057 14.4747 23.7703 13.7081C23.9652 13.2896 24.1317 12.8586 24.2688 12.4178V12.3843C23.852 11.9048 23.479 11.3889 23.1545 10.8427L22.191 9.30945C21.884 8.90372 21.6955 8.42085 21.6464 7.91445C21.6365 7.74193 21.6681 7.56954 21.7386 7.41175C21.8117 7.25553 21.9261 7.12227 22.0695 7.02635C22.1433 6.97898 22.2219 6.93966 22.3041 6.90905C22.236 5.99326 22.2206 5.07431 22.258 4.15676C22.2788 3.94705 22.3181 3.73958 22.3753 3.53676C22.5806 2.92023 22.9314 2.36226 23.3981 1.91013C23.8648 1.45801 24.4336 1.12505 25.0564 0.93947C25.6554 0.730011 25.425 0.235688 26.0283 0.269201C27.4652 0.348795 29.6812 1.2746 30.5316 2.25487C31.7256 3.63311 31.4198 5.32554 31.3695 7.0054C31.4948 7.0359 31.6089 7.10127 31.6986 7.19395C31.7883 7.28662 31.85 7.4028 31.8764 7.52905C31.9313 7.98446 31.8388 8.44549 31.6125 8.84445C31.6138 8.85418 31.6138 8.86405 31.6125 8.87378L30.5149 10.6793C30.1306 11.3851 29.6513 12.0349 29.0906 12.6105L29.0612 12.6357L29.2414 12.8912C29.4299 13.1719 29.6603 13.4903 29.8488 13.729C31.0385 14.4705 33.661 14.6716 34.6873 15.2413C36.9285 16.4981 36.7819 17.2438 36.7819 19.0409H40.925C41.1425 19.0423 41.3576 19.0871 41.5576 19.1727C41.7576 19.2583 41.9384 19.383 42.0896 19.5394C42.242 19.691 42.363 19.8711 42.4457 20.0695C42.5283 20.2679 42.571 20.4807 42.5713 20.6956V24.4659C42.5714 24.6815 42.5288 24.895 42.4462 25.0941C42.3635 25.2933 42.2423 25.4741 42.0896 25.6263C41.7799 25.9313 41.3638 26.1041 40.9292 26.1081L39.4253 26.0871ZM25.5256 19.0493L26.2964 15.3879C26.2688 15.3404 26.2436 15.2914 26.221 15.2413C25.9171 15.3678 25.6033 15.4687 25.2826 15.5429C24.8637 15.4173 24.8092 14.4496 25.2826 14.148C25.6371 14.2513 25.9797 14.3918 26.3048 14.5669C26.4392 14.4669 26.6022 14.4129 26.7698 14.4129C26.9373 14.4129 27.1003 14.4669 27.2348 14.5669C27.4987 14.3909 27.7626 14.2694 28.0726 14.0977C28.6968 14.4119 28.9104 15.4215 28.0265 15.6393C27.8102 15.5752 27.6052 15.4777 27.4191 15.3502L27.3981 15.4047L28.1731 19.066C28.8654 17.5456 29.3203 15.9279 29.5221 14.2694C29.2442 13.9377 28.9868 13.5893 28.7512 13.2263L28.6004 13.0043C28.0547 13.3736 27.4076 13.5639 26.7488 13.5489C26.012 13.5472 25.2996 13.2845 24.738 12.8074C24.5965 13.2873 24.3982 13.7486 24.1473 14.1815L24.0929 14.2359C24.3706 15.8937 24.8533 17.5105 25.5298 19.0493H25.5256ZM22.8654 7.34891C22.6965 7.34707 22.5302 7.39047 22.3837 7.47459C22.3214 7.51412 22.2719 7.57087 22.2413 7.63797C22.2068 7.71849 22.1924 7.80619 22.1994 7.89351C22.2433 8.2997 22.3968 8.68632 22.6434 9.01202L23.6069 10.5411C23.9606 11.1621 24.3944 11.7339 24.8972 12.2419C25.3933 12.7196 26.0559 12.9855 26.7446 12.9834C27.1053 12.991 27.4638 12.9264 27.7991 12.7933C28.1344 12.6602 28.4396 12.4613 28.6968 12.2084C29.2187 11.6649 29.6666 11.055 30.0289 10.3944L31.1097 8.60986C31.2774 8.32201 31.3574 7.99155 31.3402 7.65891C31.315 7.54999 31.1935 7.49972 30.9925 7.48716H30.8584H30.7076C30.6798 7.49141 30.6516 7.49141 30.6238 7.48716C30.5249 7.49748 30.4252 7.49748 30.3264 7.48716L30.6992 5.845C27.9427 6.26392 25.8817 4.23216 22.9702 5.42608L23.1838 7.36148C23.0725 7.37436 22.96 7.37436 22.8487 7.36148L22.8654 7.34891ZM21.2484 41.2813H19.225C19.4101 40.7812 19.5421 40.2631 19.6188 39.7355H21.5333L21.4956 40.0203C21.4418 40.445 21.3564 40.8651 21.24 41.2771L21.2484 41.2813Z"/>
</mask>
<path d="M38.5623 24.5371H40.9459C40.9707 24.5377 40.9947 24.5287 41.013 24.512C41.0302 24.4937 41.0405 24.47 41.0423 24.445V20.6747C41.0428 20.65 41.0338 20.626 41.0172 20.6077C40.9974 20.5902 40.9723 20.5798 40.9459 20.5783H11.3787C11.3655 20.5783 11.3524 20.5809 11.3402 20.5859C11.328 20.5909 11.3169 20.5983 11.3075 20.6077C11.2908 20.626 11.2818 20.65 11.2824 20.6747V24.445C11.2818 24.4697 11.2908 24.4937 11.3075 24.512C11.3271 24.5293 11.3526 24.5383 11.3787 24.5371H38.5623ZM25.4627 45.3867C20.5111 45.3867 23.7871 45.7721 24.449 40.389C25.4585 32.3374 33.1122 32.3374 34.2433 40.389C34.968 45.5668 38.0722 45.3867 33.2253 45.3867H31.2899C31.2899 46.7063 31.0804 46.5554 32.4419 47.2927C33.1415 47.6698 34.4401 47.9546 35.5503 48.3903C37.226 46.945 40.2463 47.9002 40.5773 45.2484C40.6276 44.8295 39.6724 43.845 39.4588 43.1119C38.9896 42.3621 38.822 41.1849 39.3331 40.3974C39.5342 40.0832 39.4546 39.6559 39.4546 39.2244C39.4546 34.9347 46.9658 34.9305 46.9658 39.2244C46.9658 39.7648 46.8443 40.0622 47.1334 40.4811C47.6235 41.1975 47.3721 42.4626 46.9574 43.1203C46.6893 43.8995 45.7007 44.8211 45.7635 45.2568C46.4589 48.7925 51.0838 45.1102 51.5194 50.5352H0.0218506C0.574822 44.1634 7.70899 48.0803 8.23264 43.6482C8.29129 43.1455 7.10575 41.7882 6.83346 40.8707C6.25116 39.9449 6.04589 38.4745 6.67846 37.4942C6.934 37.1047 6.82508 36.7318 6.82508 36.1998C6.82508 30.8712 16.1628 30.867 16.1628 36.1998C16.1628 36.8701 16.0078 37.0628 16.3722 37.5948C16.9838 38.4787 16.6696 40.0496 16.1544 40.8707C15.8234 41.8342 14.5625 43.1036 14.6714 43.6482C15.4548 47.6279 20.6871 44.486 22.103 48.8972C23.2467 48.1934 25.1737 47.9337 26.3844 47.2215C27.595 46.5094 27.3814 46.6057 27.373 45.4076L25.4627 45.3867ZM39.4253 26.0871V34.0466C38.8449 34.3784 38.3228 34.8029 37.8795 35.3033V26.0871H14.8138V29.8783C14.6672 29.8155 14.5206 29.761 14.3698 29.7108C14.0096 29.585 13.6415 29.4829 13.268 29.4049V26.0871H11.3787C10.9441 26.0831 10.528 25.9104 10.2183 25.6054C10.0659 25.4538 9.9449 25.2737 9.86223 25.0753C9.77956 24.8768 9.73686 24.6641 9.73656 24.4491V20.6789C9.74157 20.2506 9.91458 19.8414 10.2183 19.5394C10.3705 19.3867 10.5514 19.2655 10.7505 19.1829C10.9496 19.1002 11.1631 19.0576 11.3787 19.0577H12.8784V13.042C12.8771 12.8496 12.949 12.6639 13.0795 12.5226L15.283 9.74931C14.9785 9.27403 14.8526 8.7061 14.9276 8.14665C15.0026 7.5872 15.2738 7.07252 15.6927 6.69425C16.1117 6.31598 16.6513 6.09866 17.2155 6.08099C17.7796 6.06331 18.3318 6.24643 18.7736 6.59773C19.2154 6.94904 19.5182 7.44573 19.6281 7.99939C19.738 8.55305 19.6479 9.12775 19.3737 9.62116C19.0996 10.1146 18.6592 10.4947 18.1311 10.6938C17.6029 10.893 17.0212 10.8982 16.4895 10.7086L14.4242 13.3059V19.0493H16.4267C16.4267 17.1809 16.4267 16.6196 18.8899 15.2497C19.9246 14.6716 22.6057 14.4747 23.7703 13.7081C23.9652 13.2896 24.1317 12.8586 24.2688 12.4178V12.3843C23.852 11.9048 23.479 11.3889 23.1545 10.8427L22.191 9.30945C21.884 8.90372 21.6955 8.42085 21.6464 7.91445C21.6365 7.74193 21.6681 7.56954 21.7386 7.41175C21.8117 7.25553 21.9261 7.12227 22.0695 7.02635C22.1433 6.97898 22.2219 6.93966 22.3041 6.90905C22.236 5.99326 22.2206 5.07431 22.258 4.15676C22.2788 3.94705 22.3181 3.73958 22.3753 3.53676C22.5806 2.92023 22.9314 2.36226 23.3981 1.91013C23.8648 1.45801 24.4336 1.12505 25.0564 0.93947C25.6554 0.730011 25.425 0.235688 26.0283 0.269201C27.4652 0.348795 29.6812 1.2746 30.5316 2.25487C31.7256 3.63311 31.4198 5.32554 31.3695 7.0054C31.4948 7.0359 31.6089 7.10127 31.6986 7.19395C31.7883 7.28662 31.85 7.4028 31.8764 7.52905C31.9313 7.98446 31.8388 8.44549 31.6125 8.84445C31.6138 8.85418 31.6138 8.86405 31.6125 8.87378L30.5149 10.6793C30.1306 11.3851 29.6513 12.0349 29.0906 12.6105L29.0612 12.6357L29.2414 12.8912C29.4299 13.1719 29.6603 13.4903 29.8488 13.729C31.0385 14.4705 33.661 14.6716 34.6873 15.2413C36.9285 16.4981 36.7819 17.2438 36.7819 19.0409H40.925C41.1425 19.0423 41.3576 19.0871 41.5576 19.1727C41.7576 19.2583 41.9384 19.383 42.0896 19.5394C42.242 19.691 42.363 19.8711 42.4457 20.0695C42.5283 20.2679 42.571 20.4807 42.5713 20.6956V24.4659C42.5714 24.6815 42.5288 24.895 42.4462 25.0941C42.3635 25.2933 42.2423 25.4741 42.0896 25.6263C41.7799 25.9313 41.3638 26.1041 40.9292 26.1081L39.4253 26.0871ZM25.5256 19.0493L26.2964 15.3879C26.2688 15.3404 26.2436 15.2914 26.221 15.2413C25.9171 15.3678 25.6033 15.4687 25.2826 15.5429C24.8637 15.4173 24.8092 14.4496 25.2826 14.148C25.6371 14.2513 25.9797 14.3918 26.3048 14.5669C26.4392 14.4669 26.6022 14.4129 26.7698 14.4129C26.9373 14.4129 27.1003 14.4669 27.2348 14.5669C27.4987 14.3909 27.7626 14.2694 28.0726 14.0977C28.6968 14.4119 28.9104 15.4215 28.0265 15.6393C27.8102 15.5752 27.6052 15.4777 27.4191 15.3502L27.3981 15.4047L28.1731 19.066C28.8654 17.5456 29.3203 15.9279 29.5221 14.2694C29.2442 13.9377 28.9868 13.5893 28.7512 13.2263L28.6004 13.0043C28.0547 13.3736 27.4076 13.5639 26.7488 13.5489C26.012 13.5472 25.2996 13.2845 24.738 12.8074C24.5965 13.2873 24.3982 13.7486 24.1473 14.1815L24.0929 14.2359C24.3706 15.8937 24.8533 17.5105 25.5298 19.0493H25.5256ZM22.8654 7.34891C22.6965 7.34707 22.5302 7.39047 22.3837 7.47459C22.3214 7.51412 22.2719 7.57087 22.2413 7.63797C22.2068 7.71849 22.1924 7.80619 22.1994 7.89351C22.2433 8.2997 22.3968 8.68632 22.6434 9.01202L23.6069 10.5411C23.9606 11.1621 24.3944 11.7339 24.8972 12.2419C25.3933 12.7196 26.0559 12.9855 26.7446 12.9834C27.1053 12.991 27.4638 12.9264 27.7991 12.7933C28.1344 12.6602 28.4396 12.4613 28.6968 12.2084C29.2187 11.6649 29.6666 11.055 30.0289 10.3944L31.1097 8.60986C31.2774 8.32201 31.3574 7.99155 31.3402 7.65891C31.315 7.54999 31.1935 7.49972 30.9925 7.48716H30.8584H30.7076C30.6798 7.49141 30.6516 7.49141 30.6238 7.48716C30.5249 7.49748 30.4252 7.49748 30.3264 7.48716L30.6992 5.845C27.9427 6.26392 25.8817 4.23216 22.9702 5.42608L23.1838 7.36148C23.0725 7.37436 22.96 7.37436 22.8487 7.36148L22.8654 7.34891ZM21.2484 41.2813H19.225C19.4101 40.7812 19.5421 40.2631 19.6188 39.7355H21.5333L21.4956 40.0203C21.4418 40.445 21.3564 40.8651 21.24 41.2771L21.2484 41.2813Z" stroke="#404040" stroke-width="2" mask="url(#path-1-inside-1_1047_750)"/>
</svg>
