<svg width="51" height="51" viewBox="0 0 51 51" fill="none" xmlns="http://www.w3.org/2000/svg">
<g clip-path="url(#clip0_1047_723)">
<path d="M18.9293 0.769043H32.5289C32.6005 0.769043 32.6588 0.827402 32.6588 0.898926V12.6157L33.4323 12.1118L42.4733 6.22217L42.4742 6.22314C42.5354 6.18354 42.6175 6.20323 42.6539 6.25928L42.6549 6.26025L50.0787 17.6558C50.1078 17.7014 50.1039 17.7583 50.0768 17.7993L50.0406 17.8354L38.8658 25.1157L38.2369 25.5259L38.858 25.9487L49.8834 33.4478V33.4487C49.9418 33.4888 49.9584 33.571 49.9205 33.6304L42.2731 44.8774C42.2324 44.9367 42.148 44.9526 42.0885 44.9126L33.4401 39.0288L32.6588 38.4966V49.9009C32.6588 49.9724 32.6005 50.0308 32.5289 50.0308H18.9293C18.8578 50.0308 18.7994 49.9724 18.7994 49.9009V38.1841L18.026 38.688L8.98303 44.5767C8.92187 44.6162 8.8397 44.5966 8.80334 44.5405V44.5396L1.37952 33.144C1.34067 33.0831 1.35997 33.0016 1.41565 32.9653L1.4176 32.9644L12.5914 25.6841L13.2213 25.2739L12.6002 24.8511L1.57288 17.354C1.51474 17.313 1.49903 17.2295 1.5387 17.1704L9.18518 5.92627C9.22581 5.8673 9.30934 5.85147 9.36877 5.89111V5.89014L18.0182 11.771L18.7994 12.3022V0.898926C18.7994 0.845176 18.8318 0.798508 18.8785 0.778809L18.9293 0.769043ZM24.5739 7.14404C23.25 7.14404 22.1795 8.21498 22.1793 9.5415C22.1793 10.3534 22.5857 11.0724 23.2067 11.5054V12.9214C22.966 13.0362 22.7383 13.1651 22.5221 13.3091C21.586 13.9292 20.715 14.7313 20.3776 15.9263L20.317 16.1714C20.1607 16.8997 20.2074 17.5567 20.4547 18.1372C20.701 18.7153 21.1281 19.1748 21.6598 19.5415V19.5405C21.9512 19.7515 22.2945 19.957 22.6451 20.1567L23.1979 20.4712V24.9126C22.6658 25.2608 22.0686 25.6804 21.403 26.2114C20.7786 26.7091 20.3816 27.2469 20.2125 27.8257C20.042 28.4097 20.1207 28.9763 20.3356 29.4937C20.7504 30.4924 21.708 31.386 22.5739 32.1011L23.1979 32.6157V37.019C21.4975 37.9717 19.8348 39.1122 19.4703 41.3032L19.1979 42.9419L20.3297 41.7251C20.9177 41.0935 21.9808 40.4003 23.1979 39.7271V42.8325C23.1979 43.62 23.8352 44.2573 24.6227 44.2573C25.4101 44.2573 26.0475 43.6199 26.0475 42.8325V38.2866L27.567 37.5718C27.717 37.5015 27.8622 37.4214 28.0026 37.3325L28.0035 37.3315C29.0056 36.6942 29.8478 35.2968 29.1891 33.9683V33.9663L29.108 33.8228C28.8977 33.489 28.5456 33.1605 28.1754 32.856C27.7351 32.4937 27.1932 32.1073 26.6451 31.7202L26.0514 31.3003V26.895C26.3248 26.7636 26.6091 26.6268 26.8795 26.4839L26.8805 26.4849C27.6031 26.1038 28.3365 25.6382 28.8102 24.9429C29.303 24.2194 29.4726 23.312 29.2037 22.146H29.2047C28.8901 20.7799 27.7254 19.9809 26.6198 19.311L26.0553 18.9683V16.2339C26.1415 16.3263 26.2318 16.416 26.3307 16.4985C28.0417 17.9285 30.2779 17.7644 31.36 16.8032C31.6389 16.5554 31.8563 16.2396 31.9449 15.8677C32.0351 15.4895 31.9827 15.093 31.7877 14.7134C31.4108 13.9798 30.5163 13.3267 29.0865 12.7993H29.0856C28.9052 12.732 28.7135 12.6844 28.5416 12.645C28.3588 12.6031 28.1986 12.5698 28.0377 12.5249H28.0367C27.446 12.3562 26.7498 12.2916 26.0553 12.3101V11.4175C26.6085 10.9795 26.9674 10.3008 26.9674 9.5376C26.9674 8.21449 25.8969 7.14423 24.5739 7.14404ZM23.1979 30.9263C23.0592 30.276 23.0721 29.7681 23.1754 29.3618C23.1819 29.3363 23.1906 29.3116 23.1979 29.2866V30.9263ZM26.0553 20.5845C26.1518 20.9941 26.2228 21.3386 26.2653 21.6333C26.3308 22.0881 26.3279 22.393 26.2819 22.6147C26.246 22.7874 26.1779 22.9293 26.0553 23.0728V20.5845Z" stroke="#404040"/>
</g>
<defs>
<clipPath id="clip0_1047_723">
<rect width="49.7423" height="50.2618" fill="white" transform="translate(0.857666 0.269043)"/>
</clipPath>
</defs>
</svg>
