<svg width="40" height="51" viewBox="0 0 40 51" fill="none" xmlns="http://www.w3.org/2000/svg">
<g clip-path="url(#clip0_1047_644)">
<mask id="path-1-inside-1_1047_644" fill="white">
<path fill-rule="evenodd" clip-rule="evenodd" d="M19.7712 44.6203C20.6751 44.6203 21.4073 45.3525 21.4073 46.2564C21.4073 47.1604 20.6751 47.8926 19.7712 47.8926C18.8672 47.8926 18.135 47.1604 18.135 46.2564C18.135 45.3525 18.8672 44.6203 19.7712 44.6203ZM9.20178 27.8705C9.17724 27.8214 9.14861 27.7764 9.11588 27.7314C8.97272 27.4983 8.82956 27.2651 8.6864 26.9992C8.54324 26.7129 8.40008 26.443 8.27328 26.1935C8.14648 25.9235 8.02377 25.6372 7.91742 25.3508C7.82744 25.1013 7.72109 24.815 7.61474 24.4755C7.45522 23.9929 7.00528 23.6902 6.52262 23.6902H3.42626C3.31991 23.6902 3.21356 23.6738 3.13994 23.637C3.0704 23.6002 2.98041 23.547 2.92724 23.4775C2.8577 23.4039 2.80044 23.3343 2.76772 23.2648C2.7309 23.1953 2.71454 23.0848 2.71454 22.9785V19.0763C2.71454 18.97 2.7309 18.88 2.75136 18.8063C2.78817 18.7327 2.84134 18.6468 2.93133 18.5568C3.00086 18.4873 3.07449 18.43 3.14403 18.4137C3.21765 18.3769 3.324 18.3605 3.43035 18.3605H6.27312C6.84576 18.3605 7.31206 17.9474 7.4184 17.4115C7.48794 17.1089 7.56156 16.8225 7.6311 16.5689C7.72109 16.2826 7.81107 16.0127 7.91742 15.7263C8.02377 15.4564 8.13012 15.1701 8.27328 14.9042C8.40008 14.6179 8.54324 14.3684 8.66595 14.1188C8.91546 13.6525 8.82547 13.1167 8.46961 12.7609L6.25266 10.5235C6.2363 10.5071 6.2363 10.5071 6.21585 10.5071C6.14632 10.4376 6.08905 10.3639 6.05633 10.2944C6.01952 10.2249 6.01952 10.1512 6.01952 10.0449C6.01952 9.93854 6.03588 9.84856 6.07269 9.77493C6.1095 9.68495 6.16268 9.61541 6.25266 9.52542L8.98908 6.80536C9.07907 6.71538 9.14861 6.6622 9.23859 6.62539C9.31222 6.58858 9.39812 6.57222 9.50855 6.57222C9.6149 6.57222 9.70489 6.58858 9.77851 6.62539C9.85214 6.6622 9.93804 6.71538 10.0117 6.78491H10.028L12.0486 8.80553C12.4413 9.1982 13.0671 9.25137 13.5171 8.93233C13.7502 8.78917 13.9834 8.646 14.2492 8.50284C14.5355 8.35968 14.8055 8.21652 15.055 8.08972C15.325 7.96292 15.6113 7.84021 15.8976 7.73387C16.1471 7.64388 16.4335 7.53753 16.773 7.43118C17.2556 7.27166 17.5583 6.82173 17.5583 6.33907V3.23861C17.5583 3.13226 17.5747 3.02591 17.6115 2.95229C17.6483 2.88275 17.7015 2.80913 17.7546 2.73959C17.8283 2.67006 17.8978 2.61279 17.9673 2.59643C18.0369 2.55962 18.1473 2.54326 18.2536 2.54326H21.0023H21.0351H21.3173C21.4236 2.54326 21.53 2.55962 21.6036 2.59643C21.6731 2.61279 21.7468 2.67006 21.8163 2.73959C21.8695 2.80913 21.9227 2.88275 21.9595 2.95229C21.9963 3.02182 22.0126 3.13226 22.0126 3.23861V6.33498C22.0126 6.81764 22.3153 7.26348 22.798 7.42709C23.1375 7.53344 23.4238 7.63979 23.6733 7.72977C23.9596 7.83612 24.246 7.96292 24.5159 8.08563C24.7654 8.21243 25.0354 8.35559 25.3217 8.49875C25.5917 8.64192 25.8207 8.78508 26.0539 8.92824C26.4997 9.25137 27.1255 9.1982 27.5223 8.80144L29.5429 6.78082H29.5593C29.6288 6.71129 29.7188 6.65402 29.7924 6.6213C29.862 6.58449 29.9519 6.56813 30.0624 6.56813C30.1687 6.56813 30.2587 6.58449 30.3323 6.6213C30.4223 6.65811 30.4919 6.71129 30.5819 6.80127L33.3183 9.52133C33.4083 9.61132 33.4614 9.68085 33.4982 9.77084C33.5351 9.84038 33.5514 9.93036 33.5514 10.0408C33.5514 10.1472 33.5514 10.2208 33.5146 10.2903C33.4778 10.3639 33.4246 10.4335 33.3551 10.503C33.3387 10.503 33.3387 10.503 33.3183 10.5194L31.1013 12.7568C30.7455 13.1126 30.6555 13.6525 30.905 14.1148C31.0318 14.3643 31.1749 14.6138 31.2977 14.9001C31.4408 15.1701 31.5472 15.4564 31.6535 15.7222C31.7599 16.0086 31.8498 16.2785 31.9398 16.5649C32.0094 16.8144 32.083 17.1007 32.1525 17.4075C32.2589 17.9433 32.7252 18.3564 33.2978 18.3564H36.1406C36.2469 18.3564 36.3533 18.3728 36.4269 18.4096C36.4964 18.4259 36.5701 18.4791 36.6396 18.5527C36.7296 18.6427 36.7828 18.7327 36.8196 18.8023C36.8359 18.8718 36.8564 18.9618 36.8564 19.0722V22.9744C36.8564 23.0807 36.84 23.1871 36.8032 23.2607C36.7664 23.3343 36.7132 23.4039 36.6437 23.4734C36.5905 23.5429 36.5005 23.6002 36.431 23.6329C36.3574 23.6697 36.251 23.6861 36.1447 23.6861H33.0483C32.5657 23.6861 32.1198 23.9888 31.9562 24.4714C31.8498 24.8109 31.7435 25.0972 31.6535 25.3468C31.5472 25.6331 31.4204 25.9194 31.2977 26.1894C31.1709 26.4389 31.0277 26.7088 30.8845 26.9952C30.7414 27.2651 30.5982 27.4983 30.455 27.7273C30.4223 27.7723 30.3937 27.8173 30.3692 27.8664H33.0769C33.1915 27.6373 33.306 27.3919 33.4246 27.1383C33.5678 26.8152 33.7109 26.4961 33.8377 26.173C33.8541 26.1198 33.8909 26.0462 33.9114 25.993H36.2019C36.6151 25.993 37.0077 25.9235 37.3636 25.7803C37.7194 25.6372 38.063 25.404 38.3494 25.1177C38.6357 24.8314 38.8688 24.5082 39.012 24.1319C39.1551 23.7556 39.2247 23.3793 39.2247 22.9703V19.0722C39.2247 18.6795 39.1347 18.2869 38.9915 17.9269C38.8484 17.5711 38.6357 17.2479 38.3494 16.9616L38.333 16.9453C38.0467 16.6589 37.7235 16.4258 37.3677 16.2826C37.0118 16.1231 36.6151 16.0495 36.206 16.0495H34.255C34.255 15.9963 34.2386 15.9595 34.2181 15.9063C34.1118 15.5668 34.0054 15.2273 33.8786 14.9042C33.7355 14.5647 33.6087 14.2416 33.4655 13.9389C33.4492 13.9021 33.4123 13.8489 33.396 13.7957L35.0076 12.1678C35.3103 11.8978 35.527 11.5788 35.6866 11.2188C35.8297 10.863 35.9197 10.4662 35.9197 10.0572C35.9197 9.64404 35.8502 9.27182 35.6866 8.89551C35.527 8.53966 35.3102 8.21652 35.0239 7.9302H35.0076L32.2711 5.21014C31.9848 4.92382 31.6617 4.71112 31.2854 4.54751C30.9091 4.38799 30.5328 4.31436 30.1237 4.31436C29.7311 4.31436 29.3384 4.3839 28.9621 4.54751C28.5858 4.69067 28.2626 4.92382 27.9763 5.21014L26.5815 6.58858L26.4752 6.5354C26.1889 6.37588 25.8657 6.23272 25.5262 6.06911C25.2031 5.92595 24.884 5.78279 24.5609 5.65599C24.5077 5.63962 24.4341 5.60281 24.3809 5.58236V3.29178C24.3809 2.87866 24.3114 2.48599 24.1682 2.13014C24.0251 1.77019 23.7919 1.43069 23.5056 1.14437C23.2029 0.858048 22.8798 0.6249 22.5198 0.481739C22.1476 0.338578 21.7713 0.269043 21.3582 0.269043H19.947H19.6321H18.2209C17.8078 0.269043 17.4356 0.338578 17.0593 0.481739C16.7034 0.6249 16.3803 0.858048 16.0735 1.14437C15.7872 1.43069 15.554 1.77019 15.4109 2.13014C15.2677 2.48599 15.1982 2.88275 15.1982 3.29178V5.58236C15.145 5.59872 15.0714 5.63553 15.0182 5.65599C14.6951 5.78279 14.376 5.92595 14.0529 6.06911C13.7134 6.22863 13.3903 6.37179 13.1039 6.5354L12.9976 6.58858L11.6028 5.21014C11.3165 4.92382 10.9933 4.69067 10.617 4.54751C10.2407 4.38799 9.84805 4.31436 9.45538 4.31436C9.04226 4.31436 8.67004 4.3839 8.29373 4.54751C7.91742 4.70703 7.59429 4.92382 7.30797 5.21014L4.57155 7.9302H4.55518C4.26886 8.21652 4.05617 8.53966 3.89255 8.89551C3.73303 9.26773 3.65941 9.64404 3.65941 10.0531C3.65941 10.4662 3.74939 10.8589 3.89255 11.2147C4.05208 11.5706 4.26886 11.8937 4.57155 12.1637L6.18313 13.7916C6.16677 13.8448 6.12995 13.898 6.11359 13.9348C5.97043 14.2375 5.84363 14.5606 5.70047 14.9001C5.57367 15.2232 5.46732 15.5627 5.36098 15.9022C5.34461 15.9554 5.32416 15.9922 5.32416 16.0454H3.37308C2.95996 16.0454 2.56729 16.119 2.21143 16.2785C1.85558 16.4217 1.53244 16.6548 1.24612 16.9412L1.22976 16.9575C0.943437 17.2438 0.730741 17.567 0.58758 17.9228C0.440329 18.2828 0.350342 18.6795 0.350342 19.0722V22.9703C0.350342 23.3834 0.419877 23.7556 0.563038 24.1319C0.706199 24.5082 0.939347 24.8314 1.22567 25.1177C1.51199 25.404 1.85149 25.6372 2.21143 25.7803C2.56729 25.9235 2.96405 25.993 3.37308 25.993H5.66366C5.68002 26.0462 5.71683 26.1198 5.73728 26.173C5.86408 26.4961 6.00725 26.8152 6.15041 27.1383C6.27312 27.396 6.38355 27.6414 6.49808 27.8664H9.20178V27.8705ZM13.6316 24.2506C13.2921 24.2628 13.0303 24.3324 12.8544 24.4551C12.7522 24.5246 12.6785 24.6105 12.6336 24.7128C12.5804 24.8273 12.5558 24.9664 12.5599 25.1259C12.5722 25.5922 12.8176 26.2057 13.2921 26.9133L13.3003 26.9215L14.8382 29.3716C15.4559 30.3533 16.1021 31.3554 16.9079 32.0876C17.681 32.7952 18.6177 33.2738 19.8611 33.2779C21.2028 33.282 22.1885 32.7829 22.9861 32.0385C23.8165 31.2613 24.4709 30.1979 25.1131 29.1344L26.8474 26.2793C27.1705 25.5431 27.2891 25.0482 27.2155 24.7577C27.1705 24.586 26.9824 24.5001 26.6551 24.4837C26.5856 24.4796 26.5161 24.4796 26.4425 24.4796C26.3647 24.4837 26.2829 24.4878 26.2011 24.496C26.1561 24.5001 26.1111 24.496 26.0661 24.4878C25.9107 24.496 25.7512 24.4837 25.5917 24.4632L26.1848 21.8332C21.7795 22.5285 18.4827 19.2563 13.8238 21.1787L14.1592 24.2751C13.9752 24.2792 13.7952 24.2751 13.6316 24.2506ZM27.2482 23.6984C27.6736 23.8292 27.9477 24.0992 28.0622 24.5369C28.1849 25.0236 28.0499 25.7067 27.6409 26.6393C27.6327 26.6557 27.6246 26.672 27.6164 26.6884L25.8616 29.5761C25.1867 30.6887 24.4996 31.8054 23.5833 32.6643L23.5383 32.7052C23.6242 32.832 23.7224 32.9711 23.8206 33.1184C24.1232 33.5642 24.4709 34.0755 24.7941 34.4722C26.7001 35.6584 30.8927 35.9775 32.5329 36.8896C36.705 39.217 35.1835 44.8698 35.4861 48.9356C35.3961 49.8968 34.8521 50.449 33.7805 50.5308H32.6229L33.895 40.8899C33.9932 40.1373 33.4614 39.5238 32.8029 39.5238H23.8574C24.0783 37.949 24.2378 36.4438 24.3155 35.3067C23.8983 34.8445 23.4524 34.19 23.0679 33.6256C22.982 33.5028 22.9002 33.3801 22.8225 33.2697C22.0167 33.8096 21.0596 34.145 19.8611 34.1409C18.5236 34.1368 17.4806 33.6787 16.6175 32.9793C16.3762 33.7033 16.0203 34.7013 15.6767 35.1799C15.6481 35.2208 15.6113 35.2576 15.5704 35.2862C15.7176 36.4601 15.9222 37.9654 16.1635 39.5279H7.00119C6.34674 39.5279 5.81091 40.1414 5.90908 40.894L7.18117 50.5349H6.01952C4.94785 50.4531 4.40384 49.9009 4.31386 48.9397C4.36703 44.6326 2.7309 39.4215 7.26706 36.8937C8.92773 35.9652 13.2103 35.6503 15.0796 34.4273C15.3659 33.8914 15.6808 32.9261 15.8731 32.3535C15.8935 32.288 15.8608 32.3944 15.8935 32.3003C15.2064 31.564 14.646 30.6928 14.1061 29.8338L12.5681 27.3878C12.0036 26.5493 11.7132 25.7803 11.6928 25.1504C11.6846 24.8559 11.7337 24.586 11.8441 24.3487C11.9587 24.1033 12.1345 23.8947 12.3718 23.7352C12.4822 23.6615 12.609 23.5961 12.744 23.5429C12.6458 22.2136 12.6049 20.5406 12.6704 19.1418C12.7031 18.8104 12.7685 18.475 12.8585 18.1437C13.423 16.1313 15.1532 14.6792 17.1288 13.9961C18.0859 13.6648 17.7178 12.8754 18.6872 12.9286C20.986 13.0554 24.5282 14.5361 25.8903 16.1067C27.8045 18.3032 27.3096 21.011 27.2482 23.6984ZM16.728 37.1596C15.9508 36.2761 15.8854 35.3517 16.728 34.3741C17.7015 34.6195 18.5931 35.0408 19.4153 35.6094C19.5912 35.5316 19.7998 35.4989 20.0002 35.5153C20.8551 34.9099 21.9431 34.6645 22.8962 34.2105C24.0333 35.3189 23.9105 36.3374 22.7939 37.2823C22.1681 37.1391 21.575 36.9183 21.0064 36.6278C20.9901 36.7751 20.9533 36.9346 20.8837 37.1064L21.1741 39.5238H18.8549L19.1453 37.1064C18.9654 36.7996 18.8958 36.5379 18.8999 36.3211C18.225 36.726 17.4928 36.9878 16.728 37.1596Z"/>
</mask>
<path fill-rule="evenodd" clip-rule="evenodd" d="M19.7712 44.6203C20.6751 44.6203 21.4073 45.3525 21.4073 46.2564C21.4073 47.1604 20.6751 47.8926 19.7712 47.8926C18.8672 47.8926 18.135 47.1604 18.135 46.2564C18.135 45.3525 18.8672 44.6203 19.7712 44.6203ZM9.20178 27.8705C9.17724 27.8214 9.14861 27.7764 9.11588 27.7314C8.97272 27.4983 8.82956 27.2651 8.6864 26.9992C8.54324 26.7129 8.40008 26.443 8.27328 26.1935C8.14648 25.9235 8.02377 25.6372 7.91742 25.3508C7.82744 25.1013 7.72109 24.815 7.61474 24.4755C7.45522 23.9929 7.00528 23.6902 6.52262 23.6902H3.42626C3.31991 23.6902 3.21356 23.6738 3.13994 23.637C3.0704 23.6002 2.98041 23.547 2.92724 23.4775C2.8577 23.4039 2.80044 23.3343 2.76772 23.2648C2.7309 23.1953 2.71454 23.0848 2.71454 22.9785V19.0763C2.71454 18.97 2.7309 18.88 2.75136 18.8063C2.78817 18.7327 2.84134 18.6468 2.93133 18.5568C3.00086 18.4873 3.07449 18.43 3.14403 18.4137C3.21765 18.3769 3.324 18.3605 3.43035 18.3605H6.27312C6.84576 18.3605 7.31206 17.9474 7.4184 17.4115C7.48794 17.1089 7.56156 16.8225 7.6311 16.5689C7.72109 16.2826 7.81107 16.0127 7.91742 15.7263C8.02377 15.4564 8.13012 15.1701 8.27328 14.9042C8.40008 14.6179 8.54324 14.3684 8.66595 14.1188C8.91546 13.6525 8.82547 13.1167 8.46961 12.7609L6.25266 10.5235C6.2363 10.5071 6.2363 10.5071 6.21585 10.5071C6.14632 10.4376 6.08905 10.3639 6.05633 10.2944C6.01952 10.2249 6.01952 10.1512 6.01952 10.0449C6.01952 9.93854 6.03588 9.84856 6.07269 9.77493C6.1095 9.68495 6.16268 9.61541 6.25266 9.52542L8.98908 6.80536C9.07907 6.71538 9.14861 6.6622 9.23859 6.62539C9.31222 6.58858 9.39812 6.57222 9.50855 6.57222C9.6149 6.57222 9.70489 6.58858 9.77851 6.62539C9.85214 6.6622 9.93804 6.71538 10.0117 6.78491H10.028L12.0486 8.80553C12.4413 9.1982 13.0671 9.25137 13.5171 8.93233C13.7502 8.78917 13.9834 8.646 14.2492 8.50284C14.5355 8.35968 14.8055 8.21652 15.055 8.08972C15.325 7.96292 15.6113 7.84021 15.8976 7.73387C16.1471 7.64388 16.4335 7.53753 16.773 7.43118C17.2556 7.27166 17.5583 6.82173 17.5583 6.33907V3.23861C17.5583 3.13226 17.5747 3.02591 17.6115 2.95229C17.6483 2.88275 17.7015 2.80913 17.7546 2.73959C17.8283 2.67006 17.8978 2.61279 17.9673 2.59643C18.0369 2.55962 18.1473 2.54326 18.2536 2.54326H21.0023H21.0351H21.3173C21.4236 2.54326 21.53 2.55962 21.6036 2.59643C21.6731 2.61279 21.7468 2.67006 21.8163 2.73959C21.8695 2.80913 21.9227 2.88275 21.9595 2.95229C21.9963 3.02182 22.0126 3.13226 22.0126 3.23861V6.33498C22.0126 6.81764 22.3153 7.26348 22.798 7.42709C23.1375 7.53344 23.4238 7.63979 23.6733 7.72977C23.9596 7.83612 24.246 7.96292 24.5159 8.08563C24.7654 8.21243 25.0354 8.35559 25.3217 8.49875C25.5917 8.64192 25.8207 8.78508 26.0539 8.92824C26.4997 9.25137 27.1255 9.1982 27.5223 8.80144L29.5429 6.78082H29.5593C29.6288 6.71129 29.7188 6.65402 29.7924 6.6213C29.862 6.58449 29.9519 6.56813 30.0624 6.56813C30.1687 6.56813 30.2587 6.58449 30.3323 6.6213C30.4223 6.65811 30.4919 6.71129 30.5819 6.80127L33.3183 9.52133C33.4083 9.61132 33.4614 9.68085 33.4982 9.77084C33.5351 9.84038 33.5514 9.93036 33.5514 10.0408C33.5514 10.1472 33.5514 10.2208 33.5146 10.2903C33.4778 10.3639 33.4246 10.4335 33.3551 10.503C33.3387 10.503 33.3387 10.503 33.3183 10.5194L31.1013 12.7568C30.7455 13.1126 30.6555 13.6525 30.905 14.1148C31.0318 14.3643 31.1749 14.6138 31.2977 14.9001C31.4408 15.1701 31.5472 15.4564 31.6535 15.7222C31.7599 16.0086 31.8498 16.2785 31.9398 16.5649C32.0094 16.8144 32.083 17.1007 32.1525 17.4075C32.2589 17.9433 32.7252 18.3564 33.2978 18.3564H36.1406C36.2469 18.3564 36.3533 18.3728 36.4269 18.4096C36.4964 18.4259 36.5701 18.4791 36.6396 18.5527C36.7296 18.6427 36.7828 18.7327 36.8196 18.8023C36.8359 18.8718 36.8564 18.9618 36.8564 19.0722V22.9744C36.8564 23.0807 36.84 23.1871 36.8032 23.2607C36.7664 23.3343 36.7132 23.4039 36.6437 23.4734C36.5905 23.5429 36.5005 23.6002 36.431 23.6329C36.3574 23.6697 36.251 23.6861 36.1447 23.6861H33.0483C32.5657 23.6861 32.1198 23.9888 31.9562 24.4714C31.8498 24.8109 31.7435 25.0972 31.6535 25.3468C31.5472 25.6331 31.4204 25.9194 31.2977 26.1894C31.1709 26.4389 31.0277 26.7088 30.8845 26.9952C30.7414 27.2651 30.5982 27.4983 30.455 27.7273C30.4223 27.7723 30.3937 27.8173 30.3692 27.8664H33.0769C33.1915 27.6373 33.306 27.3919 33.4246 27.1383C33.5678 26.8152 33.7109 26.4961 33.8377 26.173C33.8541 26.1198 33.8909 26.0462 33.9114 25.993H36.2019C36.6151 25.993 37.0077 25.9235 37.3636 25.7803C37.7194 25.6372 38.063 25.404 38.3494 25.1177C38.6357 24.8314 38.8688 24.5082 39.012 24.1319C39.1551 23.7556 39.2247 23.3793 39.2247 22.9703V19.0722C39.2247 18.6795 39.1347 18.2869 38.9915 17.9269C38.8484 17.5711 38.6357 17.2479 38.3494 16.9616L38.333 16.9453C38.0467 16.6589 37.7235 16.4258 37.3677 16.2826C37.0118 16.1231 36.6151 16.0495 36.206 16.0495H34.255C34.255 15.9963 34.2386 15.9595 34.2181 15.9063C34.1118 15.5668 34.0054 15.2273 33.8786 14.9042C33.7355 14.5647 33.6087 14.2416 33.4655 13.9389C33.4492 13.9021 33.4123 13.8489 33.396 13.7957L35.0076 12.1678C35.3103 11.8978 35.527 11.5788 35.6866 11.2188C35.8297 10.863 35.9197 10.4662 35.9197 10.0572C35.9197 9.64404 35.8502 9.27182 35.6866 8.89551C35.527 8.53966 35.3102 8.21652 35.0239 7.9302H35.0076L32.2711 5.21014C31.9848 4.92382 31.6617 4.71112 31.2854 4.54751C30.9091 4.38799 30.5328 4.31436 30.1237 4.31436C29.7311 4.31436 29.3384 4.3839 28.9621 4.54751C28.5858 4.69067 28.2626 4.92382 27.9763 5.21014L26.5815 6.58858L26.4752 6.5354C26.1889 6.37588 25.8657 6.23272 25.5262 6.06911C25.2031 5.92595 24.884 5.78279 24.5609 5.65599C24.5077 5.63962 24.4341 5.60281 24.3809 5.58236V3.29178C24.3809 2.87866 24.3114 2.48599 24.1682 2.13014C24.0251 1.77019 23.7919 1.43069 23.5056 1.14437C23.2029 0.858048 22.8798 0.6249 22.5198 0.481739C22.1476 0.338578 21.7713 0.269043 21.3582 0.269043H19.947H19.6321H18.2209C17.8078 0.269043 17.4356 0.338578 17.0593 0.481739C16.7034 0.6249 16.3803 0.858048 16.0735 1.14437C15.7872 1.43069 15.554 1.77019 15.4109 2.13014C15.2677 2.48599 15.1982 2.88275 15.1982 3.29178V5.58236C15.145 5.59872 15.0714 5.63553 15.0182 5.65599C14.6951 5.78279 14.376 5.92595 14.0529 6.06911C13.7134 6.22863 13.3903 6.37179 13.1039 6.5354L12.9976 6.58858L11.6028 5.21014C11.3165 4.92382 10.9933 4.69067 10.617 4.54751C10.2407 4.38799 9.84805 4.31436 9.45538 4.31436C9.04226 4.31436 8.67004 4.3839 8.29373 4.54751C7.91742 4.70703 7.59429 4.92382 7.30797 5.21014L4.57155 7.9302H4.55518C4.26886 8.21652 4.05617 8.53966 3.89255 8.89551C3.73303 9.26773 3.65941 9.64404 3.65941 10.0531C3.65941 10.4662 3.74939 10.8589 3.89255 11.2147C4.05208 11.5706 4.26886 11.8937 4.57155 12.1637L6.18313 13.7916C6.16677 13.8448 6.12995 13.898 6.11359 13.9348C5.97043 14.2375 5.84363 14.5606 5.70047 14.9001C5.57367 15.2232 5.46732 15.5627 5.36098 15.9022C5.34461 15.9554 5.32416 15.9922 5.32416 16.0454H3.37308C2.95996 16.0454 2.56729 16.119 2.21143 16.2785C1.85558 16.4217 1.53244 16.6548 1.24612 16.9412L1.22976 16.9575C0.943437 17.2438 0.730741 17.567 0.58758 17.9228C0.440329 18.2828 0.350342 18.6795 0.350342 19.0722V22.9703C0.350342 23.3834 0.419877 23.7556 0.563038 24.1319C0.706199 24.5082 0.939347 24.8314 1.22567 25.1177C1.51199 25.404 1.85149 25.6372 2.21143 25.7803C2.56729 25.9235 2.96405 25.993 3.37308 25.993H5.66366C5.68002 26.0462 5.71683 26.1198 5.73728 26.173C5.86408 26.4961 6.00725 26.8152 6.15041 27.1383C6.27312 27.396 6.38355 27.6414 6.49808 27.8664H9.20178V27.8705ZM13.6316 24.2506C13.2921 24.2628 13.0303 24.3324 12.8544 24.4551C12.7522 24.5246 12.6785 24.6105 12.6336 24.7128C12.5804 24.8273 12.5558 24.9664 12.5599 25.1259C12.5722 25.5922 12.8176 26.2057 13.2921 26.9133L13.3003 26.9215L14.8382 29.3716C15.4559 30.3533 16.1021 31.3554 16.9079 32.0876C17.681 32.7952 18.6177 33.2738 19.8611 33.2779C21.2028 33.282 22.1885 32.7829 22.9861 32.0385C23.8165 31.2613 24.4709 30.1979 25.1131 29.1344L26.8474 26.2793C27.1705 25.5431 27.2891 25.0482 27.2155 24.7577C27.1705 24.586 26.9824 24.5001 26.6551 24.4837C26.5856 24.4796 26.5161 24.4796 26.4425 24.4796C26.3647 24.4837 26.2829 24.4878 26.2011 24.496C26.1561 24.5001 26.1111 24.496 26.0661 24.4878C25.9107 24.496 25.7512 24.4837 25.5917 24.4632L26.1848 21.8332C21.7795 22.5285 18.4827 19.2563 13.8238 21.1787L14.1592 24.2751C13.9752 24.2792 13.7952 24.2751 13.6316 24.2506ZM27.2482 23.6984C27.6736 23.8292 27.9477 24.0992 28.0622 24.5369C28.1849 25.0236 28.0499 25.7067 27.6409 26.6393C27.6327 26.6557 27.6246 26.672 27.6164 26.6884L25.8616 29.5761C25.1867 30.6887 24.4996 31.8054 23.5833 32.6643L23.5383 32.7052C23.6242 32.832 23.7224 32.9711 23.8206 33.1184C24.1232 33.5642 24.4709 34.0755 24.7941 34.4722C26.7001 35.6584 30.8927 35.9775 32.5329 36.8896C36.705 39.217 35.1835 44.8698 35.4861 48.9356C35.3961 49.8968 34.8521 50.449 33.7805 50.5308H32.6229L33.895 40.8899C33.9932 40.1373 33.4614 39.5238 32.8029 39.5238H23.8574C24.0783 37.949 24.2378 36.4438 24.3155 35.3067C23.8983 34.8445 23.4524 34.19 23.0679 33.6256C22.982 33.5028 22.9002 33.3801 22.8225 33.2697C22.0167 33.8096 21.0596 34.145 19.8611 34.1409C18.5236 34.1368 17.4806 33.6787 16.6175 32.9793C16.3762 33.7033 16.0203 34.7013 15.6767 35.1799C15.6481 35.2208 15.6113 35.2576 15.5704 35.2862C15.7176 36.4601 15.9222 37.9654 16.1635 39.5279H7.00119C6.34674 39.5279 5.81091 40.1414 5.90908 40.894L7.18117 50.5349H6.01952C4.94785 50.4531 4.40384 49.9009 4.31386 48.9397C4.36703 44.6326 2.7309 39.4215 7.26706 36.8937C8.92773 35.9652 13.2103 35.6503 15.0796 34.4273C15.3659 33.8914 15.6808 32.9261 15.8731 32.3535C15.8935 32.288 15.8608 32.3944 15.8935 32.3003C15.2064 31.564 14.646 30.6928 14.1061 29.8338L12.5681 27.3878C12.0036 26.5493 11.7132 25.7803 11.6928 25.1504C11.6846 24.8559 11.7337 24.586 11.8441 24.3487C11.9587 24.1033 12.1345 23.8947 12.3718 23.7352C12.4822 23.6615 12.609 23.5961 12.744 23.5429C12.6458 22.2136 12.6049 20.5406 12.6704 19.1418C12.7031 18.8104 12.7685 18.475 12.8585 18.1437C13.423 16.1313 15.1532 14.6792 17.1288 13.9961C18.0859 13.6648 17.7178 12.8754 18.6872 12.9286C20.986 13.0554 24.5282 14.5361 25.8903 16.1067C27.8045 18.3032 27.3096 21.011 27.2482 23.6984ZM16.728 37.1596C15.9508 36.2761 15.8854 35.3517 16.728 34.3741C17.7015 34.6195 18.5931 35.0408 19.4153 35.6094C19.5912 35.5316 19.7998 35.4989 20.0002 35.5153C20.8551 34.9099 21.9431 34.6645 22.8962 34.2105C24.0333 35.3189 23.9105 36.3374 22.7939 37.2823C22.1681 37.1391 21.575 36.9183 21.0064 36.6278C20.9901 36.7751 20.9533 36.9346 20.8837 37.1064L21.1741 39.5238H18.8549L19.1453 37.1064C18.9654 36.7996 18.8958 36.5379 18.8999 36.3211C18.225 36.726 17.4928 36.9878 16.728 37.1596Z" stroke="#404040" stroke-width="2" mask="url(#path-1-inside-1_1047_644)"/>
</g>
<defs>
<clipPath id="clip0_1047_644">
<rect width="38.8825" height="50.2618" fill="white" transform="translate(0.350342 0.269043)"/>
</clipPath>
</defs>
</svg>
