<svg width="34" height="35" viewBox="0 0 34 35" fill="none" xmlns="http://www.w3.org/2000/svg">
<rect x="0.583333" y="0.826497" width="32.8333" height="32.8333" rx="16.4167" fill="#E5E7EB"/>
<rect x="0.583333" y="0.826497" width="32.8333" height="32.8333" rx="16.4167" stroke="#E3E3E3" stroke-width="0.833333"/>
<path d="M8.66669 11.167L14.4275 14.4375C16.5323 15.6324 17.4678 15.6324 19.5725 14.4375L25.3334 11.167" stroke="#141B34" stroke-width="1.25" stroke-linejoin="round"/>
<path d="M17 23.2497C17 23.2497 15.3909 23.2395 14.5824 23.2192C11.9586 23.1533 10.6468 23.1203 9.70415 22.1742C8.76155 21.2279 8.7343 19.9507 8.67983 17.396C8.66231 16.5746 8.6623 15.7581 8.67982 14.9367C8.7343 12.382 8.76154 11.1047 9.70415 10.1586C10.6468 9.21235 11.9586 9.17939 14.5824 9.11348C16.1994 9.07285 17.8006 9.07285 19.4177 9.11348C22.0414 9.17941 23.3533 9.21237 24.2959 10.1586C25.2385 11.1048 25.2658 12.3821 25.3202 14.9367C25.3289 15.3473 25.3334 15.7568 25.3334 16.1663" stroke="#141B34" stroke-width="1.25" stroke-linecap="round" stroke-linejoin="round"/>
<path d="M25.3333 21.1667V19.0833C23.6667 19.0833 22.4167 18.25 22.4167 18.25C22.4167 18.25 21.1667 19.0833 19.5 19.0833V21.1667C19.5 24.0833 22.4167 24.9167 22.4167 24.9167C22.4167 24.9167 25.3333 24.0833 25.3333 21.1667Z" stroke="#141B34" stroke-width="1.25" stroke-linecap="round" stroke-linejoin="round"/>
</svg>
