<svg width="23" height="22" viewBox="0 0 23 22" fill="none" xmlns="http://www.w3.org/2000/svg">
<path d="M8.4021 10.1147L9.28722 10.9999M9.28722 10.9999L10.1723 11.885M9.28722 10.9999L10.1723 10.1147M9.28722 10.9999L8.4021 11.885" stroke="white" stroke-width="1.32768" stroke-linecap="round"/>
<path d="M3.97644 10.1147L4.86156 10.9999M4.86156 10.9999L5.74668 11.885M4.86156 10.9999L5.74668 10.1147M4.86156 10.9999L3.97644 11.885" stroke="white" stroke-width="1.32768" stroke-linecap="round"/>
<path d="M12.8276 10.1147L13.7128 10.9999M13.7128 10.9999L14.5979 11.885M13.7128 10.9999L14.5979 10.1147M13.7128 10.9999L12.8276 11.885" stroke="white" stroke-width="1.32768" stroke-linecap="round"/>
<path d="M17.2533 10.1147L18.1384 10.9999M18.1384 10.9999L19.0235 11.885M18.1384 10.9999L19.0235 10.1147M18.1384 10.9999L17.2533 11.885" stroke="white" stroke-width="1.32768" stroke-linecap="round"/>
<path d="M18.2568 14.5401C16.7673 17.0214 14.2499 18.6309 12.7444 19.4255C12.2071 19.7091 11.9384 19.8509 11.5 19.8509C11.0615 19.8509 10.7928 19.7091 10.2555 19.4255C8.74994 18.6309 6.23262 17.0214 4.74313 14.5401M19.466 7.45917C19.4648 6.17136 19.4451 5.50207 19.1084 5.05632C18.7507 4.58278 17.942 4.35289 16.3245 3.8931C15.2194 3.57897 14.2453 3.20052 13.467 2.85502C12.4058 2.38397 11.8753 2.14844 11.5 2.14844C11.1247 2.14844 10.5941 2.38397 9.53296 2.85502C8.75466 3.20052 7.78054 3.57896 6.67545 3.8931C5.05798 4.35289 4.24924 4.58278 3.89155 5.05632C3.55485 5.50207 3.5351 6.17136 3.53394 7.45917" stroke="white" stroke-width="1.32768" stroke-linecap="round"/>
</svg>
