<svg width="25" height="24" viewBox="0 0 25 24" fill="none" xmlns="http://www.w3.org/2000/svg">
<path d="M16.1909 2.06323V6.02149M8.27441 2.06323V6.02149" stroke="#5C6170" stroke-width="1.48434" stroke-linecap="round" stroke-linejoin="round"/>
<path d="M13.2223 4.04236H11.2432C7.51129 4.04236 5.64536 4.04236 4.486 5.2017C3.32666 6.36105 3.32666 8.22698 3.32666 11.9589V13.938C3.32666 17.6698 3.32666 19.5359 4.486 20.6951C5.64536 21.8545 7.51129 21.8545 11.2432 21.8545H13.2223C16.9541 21.8545 18.8202 21.8545 19.9794 20.6951C21.1388 19.5359 21.1388 17.6698 21.1388 13.938V11.9589C21.1388 8.22698 21.1388 6.36105 19.9794 5.2017C18.8202 4.04236 16.9541 4.04236 13.2223 4.04236Z" stroke="#5C6170" stroke-width="1.48434" stroke-linecap="round" stroke-linejoin="round"/>
<path d="M3.32666 9.97968H21.1388" stroke="#5C6170" stroke-width="1.48434" stroke-linecap="round" stroke-linejoin="round"/>
<path d="M12.2282 13.9379H12.2371M12.2282 17.8962H12.2371M16.182 13.9379H16.1909M8.27441 13.9379H8.28329M8.27441 17.8962H8.28329" stroke="#5C6170" stroke-width="1.97913" stroke-linecap="round" stroke-linejoin="round"/>
</svg>
