<svg width="20" height="20" viewBox="0 0 20 20" fill="none" xmlns="http://www.w3.org/2000/svg">
<circle cx="10" cy="10" r="10" fill="black"/>
<g clip-path="url(#clip0_137_11573)">
<path d="M14.0632 7.59368L13.0453 6.57284C13.0284 6.55587 13.0083 6.5424 12.9861 6.53321C12.964 6.52402 12.9402 6.51929 12.9163 6.51929C12.8923 6.51929 12.8685 6.52402 12.8464 6.53321C12.8242 6.5424 12.8041 6.55587 12.7872 6.57284L8.48802 10.8749C8.47109 10.8919 8.45097 10.9054 8.42883 10.9146C8.40668 10.9237 8.38294 10.9285 8.35896 10.9285C8.33498 10.9285 8.31124 10.9237 8.2891 10.9146C8.26695 10.9054 8.24683 10.8919 8.2299 10.8749L7.21198 9.85409C7.19505 9.83712 7.17493 9.82365 7.15279 9.81446C7.13064 9.80527 7.1069 9.80054 7.08292 9.80054C7.05894 9.80054 7.0352 9.80527 7.01305 9.81446C6.99091 9.82365 6.97079 9.83712 6.95386 9.85409L5.93594 10.8749C5.90177 10.9091 5.88257 10.9555 5.88257 11.0038C5.88257 11.0521 5.90177 11.0985 5.93594 11.1327L8.2299 13.427C8.24683 13.444 8.26695 13.4575 8.2891 13.4666C8.31124 13.4758 8.33498 13.4806 8.35896 13.4806C8.38294 13.4806 8.40668 13.4758 8.42883 13.4666C8.45097 13.4575 8.47109 13.444 8.48802 13.427L14.0632 7.84888C14.0966 7.81481 14.1153 7.76899 14.1153 7.72128C14.1153 7.67356 14.0966 7.62775 14.0632 7.59368Z" fill="white"/>
</g>
<defs>
<clipPath id="clip0_137_11573">
<rect width="8.75" height="8.75" fill="white" transform="translate(5.62524 5.625)"/>
</clipPath>
</defs>
</svg>
