<svg width="20" height="20" viewBox="0 0 20 20" fill="none" xmlns="http://www.w3.org/2000/svg">
<circle cx="10" cy="10" r="10" fill="white"/>
<g clip-path="url(#clip0_292_948)">
<path d="M14.0625 7.59343L13.0446 6.5726C13.0277 6.55562 13.0075 6.54215 12.9854 6.53296C12.9632 6.52377 12.9395 6.51904 12.9155 6.51904C12.8915 6.51904 12.8678 6.52377 12.8457 6.53296C12.8235 6.54215 12.8034 6.55562 12.7865 6.5726L8.48729 10.8747C8.47036 10.8917 8.45024 10.9051 8.4281 10.9143C8.40595 10.9235 8.38221 10.9282 8.35823 10.9282C8.33425 10.9282 8.31051 10.9235 8.28836 10.9143C8.26622 10.9051 8.2461 10.8917 8.22917 10.8747L7.21125 9.85385C7.19432 9.83687 7.1742 9.8234 7.15205 9.81421C7.12991 9.80502 7.10617 9.80029 7.08219 9.80029C7.05821 9.80029 7.03447 9.80502 7.01232 9.81421C6.99017 9.8234 6.97006 9.83687 6.95313 9.85385L5.93521 10.8747C5.90103 10.9089 5.88184 10.9552 5.88184 11.0036C5.88184 11.0519 5.90103 11.0983 5.93521 11.1324L8.22917 13.4268C8.2461 13.4437 8.26622 13.4572 8.28836 13.4664C8.31051 13.4756 8.33425 13.4803 8.35823 13.4803C8.38221 13.4803 8.40595 13.4756 8.4281 13.4664C8.45024 13.4572 8.47036 13.4437 8.48729 13.4268L14.0625 7.84864C14.0959 7.81456 14.1146 7.76875 14.1146 7.72104C14.1146 7.67332 14.0959 7.62751 14.0625 7.59343Z" fill="#0D0D0D"/>
</g>
<defs>
<clipPath id="clip0_292_948">
<rect width="8.75" height="8.75" fill="white" transform="translate(5.625 5.625)"/>
</clipPath>
</defs>
</svg>
