<svg width="25" height="24" viewBox="0 0 25 24" fill="none" xmlns="http://www.w3.org/2000/svg">
<path d="M14.7066 9.11899C14.7066 10.4853 13.599 11.5929 12.2327 11.5929C10.8664 11.5929 9.75879 10.4853 9.75879 9.11899C9.75879 7.75269 10.8664 6.64508 12.2327 6.64508C13.599 6.64508 14.7066 7.75269 14.7066 9.11899Z" stroke="#5C6170" stroke-width="1.48434"/>
<path d="M13.4769 17.5239C13.1431 17.8453 12.697 18.025 12.2328 18.025C11.7685 18.025 11.3224 17.8453 10.9886 17.5239C7.93226 14.5623 3.83635 11.2539 5.8338 6.45083C6.9138 3.85381 9.5063 2.19202 12.2328 2.19202C14.9592 2.19202 17.5517 3.85382 18.6317 6.45083C20.6267 11.2479 16.5408 14.5725 13.4769 17.5239Z" stroke="#5C6170" stroke-width="1.48434"/>
<path d="M18.1699 20.004C18.1699 21.0971 15.5117 21.9832 12.2325 21.9832C8.95342 21.9832 6.29517 21.0971 6.29517 20.004" stroke="#5C6170" stroke-width="1.48434" stroke-linecap="round"/>
</svg>
