<svg width="35" height="35" viewBox="0 0 35 35" fill="none" xmlns="http://www.w3.org/2000/svg">
<rect x="0.440186" y="0.824829" width="34.1729" height="34.1729" rx="17.0865" fill="#FBE7D3"/>
<path d="M23.934 13.9957C23.934 15.1752 22.9778 16.1315 21.7982 16.1315C20.6186 16.1315 19.6624 15.1752 19.6624 13.9957C19.6624 12.8161 20.6186 11.8599 21.7982 11.8599C22.9778 11.8599 23.934 12.8161 23.934 13.9957Z" stroke="#2C0A4A" stroke-width="1.0679"/>
<path d="M15.3905 17.9114C15.3905 19.091 14.4343 20.0472 13.2547 20.0472C12.0751 20.0472 11.1189 19.091 11.1189 17.9114C11.1189 16.7318 12.0751 15.7756 13.2547 15.7756C14.4343 15.7756 15.3905 16.7318 15.3905 17.9114Z" stroke="#2C0A4A" stroke-width="1.0679"/>
<path d="M23.934 21.8268C23.934 23.0065 22.9778 23.9627 21.7982 23.9627C20.6186 23.9627 19.6624 23.0065 19.6624 21.8268C19.6624 20.6472 20.6186 19.691 21.7982 19.691C22.9778 19.691 23.934 20.6472 23.934 21.8268Z" stroke="#2C0A4A" stroke-width="1.0679"/>
<path d="M15.1975 17.0209L19.8251 14.8855M15.1975 18.8011L19.8251 20.9366" stroke="#2C0A4A" stroke-width="1.0679"/>
</svg>
