<svg width="35" height="35" viewBox="0 0 35 35" fill="none" xmlns="http://www.w3.org/2000/svg">
<rect x="0.44043" y="0.582031" width="34.1729" height="34.1729" rx="17.0865" fill="#432506"/>
<path d="M23.9337 13.753C23.9337 14.9326 22.9775 15.8888 21.7979 15.8888C20.6183 15.8888 19.6621 14.9326 19.6621 13.753C19.6621 12.5734 20.6183 11.6172 21.7979 11.6172C22.9775 11.6172 23.9337 12.5734 23.9337 13.753Z" stroke="#D7B5F5" stroke-width="1.0679"/>
<path d="M15.3908 17.6685C15.3908 18.8481 14.4345 19.8043 13.2549 19.8043C12.0754 19.8043 11.1191 18.8481 11.1191 17.6685C11.1191 16.4889 12.0754 15.5327 13.2549 15.5327C14.4345 15.5327 15.3908 16.4889 15.3908 17.6685Z" stroke="#D7B5F5" stroke-width="1.0679"/>
<path d="M23.9337 21.584C23.9337 22.7637 22.9775 23.7199 21.7979 23.7199C20.6183 23.7199 19.6621 22.7637 19.6621 21.584C19.6621 20.4044 20.6183 19.4482 21.7979 19.4482C22.9775 19.4482 23.9337 20.4044 23.9337 21.584Z" stroke="#D7B5F5" stroke-width="1.0679"/>
<path d="M15.1973 16.7785L19.8248 14.6431M15.1973 18.5587L19.8248 20.6942" stroke="#D7B5F5" stroke-width="1.0679"/>
</svg>
