<svg width="25" height="24" viewBox="0 0 25 24" fill="none" xmlns="http://www.w3.org/2000/svg">
<path d="M19.8608 7.70591C20.0164 7.5504 20.2844 7.53455 20.4419 7.70645C21.3649 8.71315 21.8757 9.45856 22.0439 10.284C22.1407 10.759 22.1544 11.2424 22.0846 11.7127C21.8958 12.9835 20.8661 14.0131 18.8069 16.0724L16.295 18.5842C14.2358 20.6435 13.2061 21.6731 11.9353 21.8619C11.4651 21.9318 10.9817 21.918 10.5067 21.8213C9.6813 21.653 8.93597 21.1423 7.92945 20.2196C7.75733 20.0618 7.77324 19.7935 7.92892 19.6379C8.79597 18.7708 8.75476 17.3239 7.83691 16.406C6.91905 15.4882 5.47211 15.447 4.60507 16.314C4.44939 16.4697 4.18112 16.4856 4.02332 16.3134C3.10056 15.307 2.58985 14.5616 2.42166 13.7362C2.32488 13.2612 2.31111 12.7778 2.38098 12.3076C2.56983 11.0368 3.59945 10.0071 5.65869 7.9479L8.17055 5.43604C10.2298 3.3768 11.2595 2.34718 12.5303 2.15832C13.0005 2.08846 13.4839 2.10222 13.9589 2.199C14.7844 2.36722 15.5298 2.87802 16.5365 3.80098C16.7084 3.9586 16.6926 4.22655 16.537 4.38206C15.6699 5.24909 15.7112 6.69603 16.629 7.61389C17.5468 8.53175 18.9939 8.57295 19.8608 7.70591Z" stroke="#5C6170" stroke-width="1.48434" stroke-linejoin="round"/>
<path d="M19.1595 14.9789L9.26392 5.08331" stroke="#5C6170" stroke-width="1.48434" stroke-linecap="round" stroke-linejoin="round"/>
</svg>
